<svg width="48" height="48" viewBox="0 0 48 48" fill="none" xmlns="http://www.w3.org/2000/svg">
<g id="camera_video">
<mask id="mask0_1188_2785" style="mask-type:alpha" maskUnits="userSpaceOnUse" x="0" y="0" width="48" height="48">
<rect id="Bounding box" width="48" height="48" fill="#D9D9D9"/>
</mask>
<g mask="url(#mask0_1188_2785)">
<path id="camera_video_2" d="M18.55 38H29.45L28.45 34H19.55L18.55 38ZM18 30H30C32.7667 30 35.125 29.025 37.075 27.075C39.025 25.125 40 22.7667 40 20C40 17.2333 39.025 14.875 37.075 12.925C35.125 10.975 32.7667 10 30 10H18C15.2333 10 12.875 10.975 10.925 12.925C8.975 14.875 8 17.2333 8 20C8 22.7667 8.975 25.125 10.925 27.075C12.875 29.025 15.2333 30 18 30ZM24 24C22.9 24 21.9583 23.6083 21.175 22.825C20.3917 22.0417 20 21.1 20 20C20 18.9 20.3917 17.9583 21.175 17.175C21.9583 16.3917 22.9 16 24 16C25.1 16 26.0417 16.3917 26.825 17.175C27.6083 17.9583 28 18.9 28 20C28 21.1 27.6083 22.0417 26.825 22.825C26.0417 23.6083 25.1 24 24 24ZM13 18C13.5667 18 14.0417 17.8083 14.425 17.425C14.8083 17.0417 15 16.5667 15 16C15 15.4333 14.8083 14.9583 14.425 14.575C14.0417 14.1917 13.5667 14 13 14C12.4333 14 11.9583 14.1917 11.575 14.575C11.1917 14.9583 11 15.4333 11 16C11 16.5667 11.1917 17.0417 11.575 17.425C11.9583 17.8083 12.4333 18 13 18ZM10 42C9.43333 42 8.95833 41.8083 8.575 41.425C8.19167 41.0417 8 40.5667 8 40C8 39.4333 8.19167 38.9583 8.575 38.575C8.95833 38.1917 9.43333 38 10 38H14.45L15.5 33.8C12.2 33.2333 9.45833 31.6583 7.275 29.075C5.09167 26.4917 4 23.4667 4 20C4 16.1 5.35833 12.7917 8.075 10.075C10.7917 7.35833 14.1 6 18 6H30C33.9 6 37.2083 7.35833 39.925 10.075C42.6417 12.7917 44 16.1 44 20C44 23.4667 42.9083 26.4917 40.725 29.075C38.5417 31.6583 35.8 33.2333 32.5 33.8L33.55 38H38C38.5667 38 39.0417 38.1917 39.425 38.575C39.8083 38.9583 40 39.4333 40 40C40 40.5667 39.8083 41.0417 39.425 41.425C39.0417 41.8083 38.5667 42 38 42H10ZM24 28C26.2 28 28.0833 27.2167 29.65 25.65C31.2167 24.0833 32 22.2 32 20C32 17.8 31.2167 15.9167 29.65 14.35C28.0833 12.7833 26.2 12 24 12C21.8 12 19.9167 12.7833 18.35 14.35C16.7833 15.9167 16 17.8 16 20C16 22.2 16.7833 24.0833 18.35 25.65C19.9167 27.2167 21.8 28 24 28Z" fill="#F6F6F6"/>
</g>
</g>
</svg>
