<svg width="32" height="32" viewBox="0 0 32 32" fill="none" xmlns="http://www.w3.org/2000/svg">
<g id="add_circle">
<mask id="mask0_1141_2533" style="mask-type:alpha" maskUnits="userSpaceOnUse" x="0" y="0" width="32" height="32">
<rect id="Bounding box" width="32" height="32" fill="#D9D9D9"/>
</mask>
<g mask="url(#mask0_1141_2533)">
<path id="add_circle_2" d="M14.667 17.3327V21.3327C14.667 21.7105 14.7948 22.0271 15.0503 22.2827C15.3059 22.5382 15.6225 22.666 16.0003 22.666C16.3781 22.666 16.6948 22.5382 16.9503 22.2827C17.2059 22.0271 17.3337 21.7105 17.3337 21.3327V17.3327H21.3337C21.7114 17.3327 22.0281 17.2049 22.2837 16.9493C22.5392 16.6938 22.667 16.3771 22.667 15.9993C22.667 15.6216 22.5392 15.3049 22.2837 15.0493C22.0281 14.7938 21.7114 14.666 21.3337 14.666H17.3337V10.666C17.3337 10.2882 17.2059 9.97157 16.9503 9.71601C16.6948 9.46046 16.3781 9.33268 16.0003 9.33268C15.6225 9.33268 15.3059 9.46046 15.0503 9.71601C14.7948 9.97157 14.667 10.2882 14.667 10.666V14.666H10.667C10.2892 14.666 9.97255 14.7938 9.71699 15.0493C9.46144 15.3049 9.33366 15.6216 9.33366 15.9993C9.33366 16.3771 9.46144 16.6938 9.71699 16.9493C9.97255 17.2049 10.2892 17.3327 10.667 17.3327H14.667ZM16.0003 29.3327C14.1559 29.3327 12.4225 28.9827 10.8003 28.2827C9.1781 27.5827 7.76699 26.6327 6.56699 25.4327C5.36699 24.2327 4.41699 22.8216 3.71699 21.1993C3.01699 19.5771 2.66699 17.8438 2.66699 15.9993C2.66699 14.1549 3.01699 12.4216 3.71699 10.7993C4.41699 9.17713 5.36699 7.76602 6.56699 6.56602C7.76699 5.36602 9.1781 4.41602 10.8003 3.71602C12.4225 3.01602 14.1559 2.66602 16.0003 2.66602C17.8448 2.66602 19.5781 3.01602 21.2003 3.71602C22.8225 4.41602 24.2337 5.36602 25.4337 6.56602C26.6337 7.76602 27.5837 9.17713 28.2837 10.7993C28.9837 12.4216 29.3337 14.1549 29.3337 15.9993C29.3337 17.8438 28.9837 19.5771 28.2837 21.1993C27.5837 22.8216 26.6337 24.2327 25.4337 25.4327C24.2337 26.6327 22.8225 27.5827 21.2003 28.2827C19.5781 28.9827 17.8448 29.3327 16.0003 29.3327ZM16.0003 26.666C18.9781 26.666 21.5003 25.6327 23.567 23.566C25.6337 21.4993 26.667 18.9771 26.667 15.9993C26.667 13.0216 25.6337 10.4993 23.567 8.43268C21.5003 6.36602 18.9781 5.33268 16.0003 5.33268C13.0225 5.33268 10.5003 6.36602 8.43366 8.43268C6.36699 10.4993 5.33366 13.0216 5.33366 15.9993C5.33366 18.9771 6.36699 21.4993 8.43366 23.566C10.5003 25.6327 13.0225 26.666 16.0003 26.666Z" fill="#F6F6F6"/>
</g>
</g>
</svg>
