<svg width="196" height="293" viewBox="0 0 196 293" fill="none" xmlns="http://www.w3.org/2000/svg">
<path d="M195.171 20.3325V224.352C195.171 235.088 186.476 243.783 175.74 243.783H166.025C155.299 243.783 146.595 235.088 146.595 224.352V166.061C146.595 155.335 137.899 146.63 127.164 146.63H117.449C117.225 146.63 117.002 146.63 116.779 146.611H79.2583C79.0349 146.63 78.8114 146.63 78.588 146.63H68.8728C58.1472 146.63 49.4423 155.335 49.4423 166.061V224.352C49.4423 235.088 58.1472 243.783 68.8728 243.783H127.164C137.899 243.783 146.595 252.487 146.595 263.213V272.928C146.595 283.664 137.899 292.359 127.164 292.359H68.8728C58.1472 292.359 49.4423 283.664 49.4423 272.928V263.213C49.4423 252.487 40.7472 243.783 30.0119 243.783H20.2967C9.57105 243.783 0.866211 235.088 0.866211 224.352V166.061C0.866211 155.335 9.57105 146.63 20.2967 146.63H30.0119C40.7472 146.63 49.4423 137.935 49.4423 127.2V117.485C49.4423 106.759 58.1472 98.0543 68.8728 98.0543H74.8962V98.0349H123.472V98.0543H127.164C137.899 98.0543 146.595 106.749 146.595 117.485V20.3325C146.595 9.60694 155.299 0.9021 166.025 0.9021H175.74C186.476 0.9021 195.171 9.60694 195.171 20.3325Z" fill="#FFFC43"/>
</svg>
