<svg width="24" height="24" viewBox="0 0 24 24" fill="none" xmlns="http://www.w3.org/2000/svg">
<path id="dashboard" d="M13.3333 6.66667V1.33333C13.3333 0.955556 13.4611 0.638889 13.7167 0.383333C13.9722 0.127778 14.2889 0 14.6667 0H22.6667C23.0444 0 23.3611 0.127778 23.6167 0.383333C23.8722 0.638889 24 0.955556 24 1.33333V6.66667C24 7.04444 23.8722 7.36111 23.6167 7.61667C23.3611 7.87222 23.0444 8 22.6667 8H14.6667C14.2889 8 13.9722 7.87222 13.7167 7.61667C13.4611 7.36111 13.3333 7.04444 13.3333 6.66667ZM0 12V1.33333C0 0.955556 0.127778 0.638889 0.383333 0.383333C0.638889 0.127778 0.955556 0 1.33333 0H9.33333C9.71111 0 10.0278 0.127778 10.2833 0.383333C10.5389 0.638889 10.6667 0.955556 10.6667 1.33333V12C10.6667 12.3778 10.5389 12.6944 10.2833 12.95C10.0278 13.2056 9.71111 13.3333 9.33333 13.3333H1.33333C0.955556 13.3333 0.638889 13.2056 0.383333 12.95C0.127778 12.6944 0 12.3778 0 12ZM13.3333 22.6667V12C13.3333 11.6222 13.4611 11.3056 13.7167 11.05C13.9722 10.7944 14.2889 10.6667 14.6667 10.6667H22.6667C23.0444 10.6667 23.3611 10.7944 23.6167 11.05C23.8722 11.3056 24 11.6222 24 12V22.6667C24 23.0444 23.8722 23.3611 23.6167 23.6167C23.3611 23.8722 23.0444 24 22.6667 24H14.6667C14.2889 24 13.9722 23.8722 13.7167 23.6167C13.4611 23.3611 13.3333 23.0444 13.3333 22.6667ZM0 22.6667V17.3333C0 16.9556 0.127778 16.6389 0.383333 16.3833C0.638889 16.1278 0.955556 16 1.33333 16H9.33333C9.71111 16 10.0278 16.1278 10.2833 16.3833C10.5389 16.6389 10.6667 16.9556 10.6667 17.3333V22.6667C10.6667 23.0444 10.5389 23.3611 10.2833 23.6167C10.0278 23.8722 9.71111 24 9.33333 24H1.33333C0.955556 24 0.638889 23.8722 0.383333 23.6167C0.127778 23.3611 0 23.0444 0 22.6667ZM2.66667 10.6667H8V2.66667H2.66667V10.6667ZM16 21.3333H21.3333V13.3333H16V21.3333ZM16 5.33333H21.3333V2.66667H16V5.33333ZM2.66667 21.3333H8V18.6667H2.66667V21.3333Z" fill="#F6F6F6"/>
</svg>
