<svg width="56" height="56" viewBox="0 0 56 56" fill="none" xmlns="http://www.w3.org/2000/svg">
<g id="add_circle">
<mask id="mask0_1141_889" style="mask-type:alpha" maskUnits="userSpaceOnUse" x="0" y="0" width="56" height="56">
<rect id="Bounding box" width="56" height="56" fill="#D9D9D9"/>
</mask>
<g mask="url(#mask0_1141_889)">
<path id="add_circle_2" d="M25.667 30.3327V37.3327C25.667 37.9938 25.8906 38.548 26.3378 38.9952C26.785 39.4424 27.3392 39.666 28.0003 39.666C28.6614 39.666 29.2156 39.4424 29.6628 38.9952C30.1101 38.548 30.3337 37.9938 30.3337 37.3327V30.3327H37.3337C37.9948 30.3327 38.5489 30.1091 38.9962 29.6619C39.4434 29.2146 39.667 28.6605 39.667 27.9994C39.667 27.3382 39.4434 26.7841 38.9962 26.3369C38.5489 25.8896 37.9948 25.666 37.3337 25.666H30.3337V18.666C30.3337 18.0049 30.1101 17.4507 29.6628 17.0035C29.2156 16.5563 28.6614 16.3327 28.0003 16.3327C27.3392 16.3327 26.785 16.5563 26.3378 17.0035C25.8906 17.4507 25.667 18.0049 25.667 18.666V25.666H18.667C18.0059 25.666 17.4517 25.8896 17.0045 26.3369C16.5573 26.7841 16.3337 27.3382 16.3337 27.9994C16.3337 28.6605 16.5573 29.2146 17.0045 29.6619C17.4517 30.1091 18.0059 30.3327 18.667 30.3327H25.667ZM28.0003 51.3327C24.7725 51.3327 21.7392 50.7202 18.9003 49.4952C16.0614 48.2702 13.592 46.6077 11.492 44.5077C9.39199 42.4077 7.72949 39.9382 6.50449 37.0994C5.27949 34.2605 4.66699 31.2271 4.66699 27.9994C4.66699 24.7716 5.27949 21.7382 6.50449 18.8994C7.72949 16.0605 9.39199 13.591 11.492 11.491C13.592 9.39102 16.0614 7.72852 18.9003 6.50352C21.7392 5.27852 24.7725 4.66602 28.0003 4.66602C31.2281 4.66602 34.2614 5.27852 37.1003 6.50352C39.9392 7.72852 42.4087 9.39102 44.5087 11.491C46.6087 13.591 48.2712 16.0605 49.4962 18.8994C50.7212 21.7382 51.3337 24.7716 51.3337 27.9994C51.3337 31.2271 50.7212 34.2605 49.4962 37.0994C48.2712 39.9382 46.6087 42.4077 44.5087 44.5077C42.4087 46.6077 39.9392 48.2702 37.1003 49.4952C34.2614 50.7202 31.2281 51.3327 28.0003 51.3327ZM28.0003 46.666C33.2114 46.666 37.6253 44.8577 41.242 41.241C44.8587 37.6244 46.667 33.2105 46.667 27.9994C46.667 22.7882 44.8587 18.3744 41.242 14.7577C37.6253 11.141 33.2114 9.33268 28.0003 9.33268C22.7892 9.33268 18.3753 11.141 14.7587 14.7577C11.142 18.3744 9.33366 22.7882 9.33366 27.9994C9.33366 33.2105 11.142 37.6244 14.7587 41.241C18.3753 44.8577 22.7892 46.666 28.0003 46.666Z" fill="#F6F6F6"/>
</g>
</g>
</svg>
