<svg width="32" height="32" viewBox="0 0 32 32" fill="none" xmlns="http://www.w3.org/2000/svg">
<g id="folder">
<mask id="mask0_1141_2460" style="mask-type:alpha" maskUnits="userSpaceOnUse" x="0" y="0" width="32" height="32">
<rect id="Bounding box" width="32" height="32" fill="#D9D9D9"/>
</mask>
<g mask="url(#mask0_1141_2460)">
<path id="folder_2" d="M5.33366 26.6673C4.60033 26.6673 3.97255 26.4062 3.45033 25.884C2.9281 25.3618 2.66699 24.734 2.66699 24.0007V8.00065C2.66699 7.26732 2.9281 6.63954 3.45033 6.11732C3.97255 5.5951 4.60033 5.33398 5.33366 5.33398H12.2337C12.5892 5.33398 12.9281 5.40065 13.2503 5.53398C13.5725 5.66732 13.8559 5.85621 14.1003 6.10065L16.0003 8.00065H26.667C27.4003 8.00065 28.0281 8.26176 28.5503 8.78398C29.0725 9.30621 29.3337 9.93398 29.3337 10.6673V24.0007C29.3337 24.734 29.0725 25.3618 28.5503 25.884C28.0281 26.4062 27.4003 26.6673 26.667 26.6673H5.33366ZM5.33366 24.0007H26.667V10.6673H14.9003L12.2337 8.00065H5.33366V24.0007Z" fill="#F6F6F6"/>
</g>
</g>
</svg>
