<svg width="32" height="32" viewBox="0 0 32 32" fill="none" xmlns="http://www.w3.org/2000/svg">
<g id="accessibility_new">
<mask id="mask0_1141_2507" style="mask-type:alpha" maskUnits="userSpaceOnUse" x="0" y="0" width="32" height="32">
<rect id="Bounding box" width="32" height="32" fill="#D9D9D9"/>
</mask>
<g mask="url(#mask0_1141_2507)">
<path id="accessibility_new_2" d="M15.9988 7.99935C15.2654 7.99935 14.6376 7.73824 14.1154 7.21602C13.5932 6.69379 13.3321 6.06602 13.3321 5.33268C13.3321 4.59935 13.5932 3.97157 14.1154 3.44935C14.6376 2.92713 15.2654 2.66602 15.9988 2.66602C16.7321 2.66602 17.3599 2.92713 17.8821 3.44935C18.4043 3.97157 18.6654 4.59935 18.6654 5.33268C18.6654 6.06602 18.4043 6.69379 17.8821 7.21602C17.3599 7.73824 16.7321 7.99935 15.9988 7.99935ZM11.9988 27.9993V11.9993C10.9099 11.9105 9.80986 11.7882 8.69875 11.6327C7.58764 11.4771 6.49875 11.2771 5.43208 11.0327C5.05431 10.9438 4.74875 10.7327 4.51542 10.3993C4.28208 10.066 4.22097 9.71046 4.33208 9.33268C4.44319 8.9549 4.67653 8.67713 5.03208 8.49935C5.38764 8.32157 5.76542 8.27713 6.16542 8.36602C7.72097 8.69935 9.33764 8.94379 11.0154 9.09935C12.6932 9.2549 14.3543 9.33268 15.9988 9.33268C17.6432 9.33268 19.3043 9.2549 20.9821 9.09935C22.6599 8.94379 24.2765 8.69935 25.8321 8.36602C26.2321 8.27713 26.6099 8.32157 26.9654 8.49935C27.321 8.67713 27.5543 8.9549 27.6654 9.33268C27.7765 9.71046 27.7154 10.066 27.4821 10.3993C27.2488 10.7327 26.9432 10.9438 26.5654 11.0327C25.4988 11.2771 24.4099 11.4771 23.2988 11.6327C22.1876 11.7882 21.0876 11.9105 19.9988 11.9993V27.9993C19.9988 28.3771 19.871 28.6938 19.6154 28.9493C19.3599 29.2049 19.0432 29.3327 18.6654 29.3327C18.2876 29.3327 17.971 29.2049 17.7154 28.9493C17.4599 28.6938 17.3321 28.3771 17.3321 27.9993V21.3327H14.6654V27.9993C14.6654 28.3771 14.5376 28.6938 14.2821 28.9493C14.0265 29.2049 13.7099 29.3327 13.3321 29.3327C12.9543 29.3327 12.6376 29.2049 12.3821 28.9493C12.1265 28.6938 11.9988 28.3771 11.9988 27.9993Z" fill="#F6F6F6"/>
</g>
</g>
</svg>
