<svg width="32" height="32" viewBox="0 0 32 32" fill="none" xmlns="http://www.w3.org/2000/svg">
<g id="other_houses">
<mask id="mask0_1141_602" style="mask-type:alpha" maskUnits="userSpaceOnUse" x="0" y="0" width="32" height="32">
<rect id="Bounding box" width="32" height="32" fill="#D9D9D9"/>
</mask>
<g mask="url(#mask0_1141_602)">
<path id="other_houses_2" d="M5.33385 25.3345V15.5012L4.00052 16.5345C3.68941 16.7567 3.35608 16.8456 3.00052 16.8012C2.64497 16.7567 2.35608 16.5789 2.13385 16.2678C1.91163 15.9567 1.8283 15.6234 1.88385 15.2678C1.93941 14.9123 2.11163 14.6234 2.40052 14.4012L14.3672 5.23451C14.6116 5.05673 14.8727 4.92339 15.1505 4.83451C15.4283 4.74562 15.7116 4.70117 16.0005 4.70117C16.2894 4.70117 16.5727 4.74562 16.8505 4.83451C17.1283 4.92339 17.3894 5.05673 17.6339 5.23451L29.6339 14.4012C29.9227 14.6234 30.0894 14.9123 30.1339 15.2678C30.1783 15.6234 30.0894 15.9567 29.8672 16.2678C29.645 16.5567 29.3561 16.7234 29.0005 16.7678C28.645 16.8123 28.3227 16.7234 28.0339 16.5012L26.6672 15.5012V25.3345C26.6672 26.0678 26.4061 26.6956 25.8839 27.2178C25.3616 27.7401 24.7339 28.0012 24.0005 28.0012H8.00052C7.26719 28.0012 6.63941 27.7401 6.11719 27.2178C5.59497 26.6956 5.33385 26.0678 5.33385 25.3345ZM8.00052 25.3345H24.0005V13.4678L16.0005 7.36784L8.00052 13.4678V25.3345ZM10.6672 20.0012C11.045 20.0012 11.3616 19.8734 11.6172 19.6178C11.8727 19.3623 12.0005 19.0456 12.0005 18.6678C12.0005 18.2901 11.8727 17.9734 11.6172 17.7178C11.3616 17.4623 11.045 17.3345 10.6672 17.3345C10.2894 17.3345 9.97274 17.4623 9.71719 17.7178C9.46163 17.9734 9.33385 18.2901 9.33385 18.6678C9.33385 19.0456 9.46163 19.3623 9.71719 19.6178C9.97274 19.8734 10.2894 20.0012 10.6672 20.0012ZM16.0005 20.0012C16.3783 20.0012 16.695 19.8734 16.9505 19.6178C17.2061 19.3623 17.3339 19.0456 17.3339 18.6678C17.3339 18.2901 17.2061 17.9734 16.9505 17.7178C16.695 17.4623 16.3783 17.3345 16.0005 17.3345C15.6227 17.3345 15.3061 17.4623 15.0505 17.7178C14.795 17.9734 14.6672 18.2901 14.6672 18.6678C14.6672 19.0456 14.795 19.3623 15.0505 19.6178C15.3061 19.8734 15.6227 20.0012 16.0005 20.0012ZM21.3339 20.0012C21.7116 20.0012 22.0283 19.8734 22.2839 19.6178C22.5394 19.3623 22.6672 19.0456 22.6672 18.6678C22.6672 18.2901 22.5394 17.9734 22.2839 17.7178C22.0283 17.4623 21.7116 17.3345 21.3339 17.3345C20.9561 17.3345 20.6394 17.4623 20.3839 17.7178C20.1283 17.9734 20.0005 18.2901 20.0005 18.6678C20.0005 19.0456 20.1283 19.3623 20.3839 19.6178C20.6394 19.8734 20.9561 20.0012 21.3339 20.0012Z" fill="#F6F6F6"/>
</g>
</g>
</svg>
