<svg width="48" height="48" viewBox="0 0 48 48" fill="none" xmlns="http://www.w3.org/2000/svg">
<g id="photo_camera">
<mask id="mask0_1188_2778" style="mask-type:alpha" maskUnits="userSpaceOnUse" x="0" y="0" width="48" height="48">
<rect id="Bounding box" width="48" height="48" fill="#D9D9D9"/>
</mask>
<g mask="url(#mask0_1188_2778)">
<path id="photo_camera_2" d="M24 35C26.5 35 28.625 34.125 30.375 32.375C32.125 30.625 33 28.5 33 26C33 23.5 32.125 21.375 30.375 19.625C28.625 17.875 26.5 17 24 17C21.5 17 19.375 17.875 17.625 19.625C15.875 21.375 15 23.5 15 26C15 28.5 15.875 30.625 17.625 32.375C19.375 34.125 21.5 35 24 35ZM24 31C22.6 31 21.4167 30.5167 20.45 29.55C19.4833 28.5833 19 27.4 19 26C19 24.6 19.4833 23.4167 20.45 22.45C21.4167 21.4833 22.6 21 24 21C25.4 21 26.5833 21.4833 27.55 22.45C28.5167 23.4167 29 24.6 29 26C29 27.4 28.5167 28.5833 27.55 29.55C26.5833 30.5167 25.4 31 24 31ZM8 42C6.9 42 5.95833 41.6083 5.175 40.825C4.39167 40.0417 4 39.1 4 38V14C4 12.9 4.39167 11.9583 5.175 11.175C5.95833 10.3917 6.9 10 8 10H14.3L16.8 7.3C17.1667 6.9 17.6083 6.58333 18.125 6.35C18.6417 6.11667 19.1833 6 19.75 6H28.25C28.8167 6 29.3583 6.11667 29.875 6.35C30.3917 6.58333 30.8333 6.9 31.2 7.3L33.7 10H40C41.1 10 42.0417 10.3917 42.825 11.175C43.6083 11.9583 44 12.9 44 14V38C44 39.1 43.6083 40.0417 42.825 40.825C42.0417 41.6083 41.1 42 40 42H8ZM8 38H40V14H31.9L28.25 10H19.75L16.1 14H8V38Z" fill="#F6F6F6"/>
</g>
</g>
</svg>
