<svg width="813" height="229" viewBox="0 0 813 229" fill="none" xmlns="http://www.w3.org/2000/svg">
<g filter="url(#filter0_d_822_9774)">
<mask id="path-1-outside-1_822_9774" maskUnits="userSpaceOnUse" x="4.55322" y="0.662598" width="804" height="220" fill="black">
<rect fill="white" x="4.55322" y="0.662598" width="804" height="220"/>
<path d="M142.756 215.118L135.616 160.543L145.052 142.691L135.616 118.974L148.367 18.7492H209.063L193.506 137.336L203.452 215.118H142.756ZM154.488 142.181C152.447 157.653 147.942 171.254 140.971 182.985C134.171 194.546 125.33 203.557 114.449 210.018C103.738 216.308 91.4115 219.454 77.4702 219.454C63.3588 219.454 50.8626 216.223 39.9815 209.763C29.1005 203.302 20.5997 194.291 14.4791 182.73C8.52851 170.999 5.55322 157.483 5.55322 142.181C5.55322 126.54 8.52851 112.938 14.4791 101.377C20.5997 89.6461 29.1005 80.6352 39.9815 74.3446C50.8626 67.884 63.3588 64.6537 77.4702 64.6537C91.4115 64.6537 103.738 67.799 114.449 74.0896C125.33 80.3802 134.256 89.3911 141.226 101.122C148.197 112.683 152.617 126.37 154.488 142.181ZM64.4639 142.181C64.4639 148.642 65.739 154.337 68.2893 159.268C71.0095 164.198 74.7499 168.109 79.5104 170.999C84.2708 173.889 89.7113 175.334 95.8319 175.334C102.123 175.334 108.158 173.889 113.939 170.999C119.719 168.109 124.82 164.198 129.24 159.268C133.661 154.337 136.891 148.642 138.931 142.181C136.891 135.721 133.661 130.025 129.24 125.094C124.82 119.994 119.719 115.999 113.939 113.108C108.158 110.218 102.123 108.773 95.8319 108.773C89.7113 108.773 84.2708 110.218 79.5104 113.108C74.7499 115.999 71.0095 119.994 68.2893 125.094C65.739 130.025 64.4639 135.721 64.4639 142.181Z"/>
<path d="M225.843 66.1838L255.17 72.3044L284.243 66.1838V215.118H225.843V66.1838ZM255.17 56.4929C245.31 56.4929 237.319 54.0276 231.198 49.0972C225.078 44.1667 222.017 37.5361 222.017 29.2052C222.017 20.7044 225.078 13.9888 231.198 9.05831C237.319 4.12783 245.31 1.6626 255.17 1.6626C265.371 1.6626 273.447 4.12783 279.398 9.05831C285.518 13.9888 288.579 20.7044 288.579 29.2052C288.579 37.5361 285.518 44.1667 279.398 49.0972C273.447 54.0276 265.371 56.4929 255.17 56.4929Z"/>
<path d="M304.131 68.9891H362.532L372.478 129.43V215.118H314.077V120.504L304.131 68.9891ZM421.698 64.6537C435.299 64.6537 446.86 67.4589 456.381 73.0695C465.902 78.68 473.128 86.6708 478.058 97.0418C483.158 107.243 485.709 119.229 485.709 133V215.118H427.308V141.416C427.308 131.895 425.013 124.584 420.422 119.484C416.002 114.383 409.626 111.833 401.296 111.833C395.345 111.833 390.16 113.193 385.739 115.914C381.489 118.634 378.173 122.459 375.793 127.39C373.583 132.32 372.478 138.271 372.478 145.241L354.881 136.061C357.091 120.249 361.342 107.073 367.632 96.5317C374.093 85.9907 381.999 78.085 391.35 72.8145C400.701 67.3739 410.817 64.6537 421.698 64.6537ZM534.673 64.6537C548.275 64.6537 559.836 67.4589 569.357 73.0695C579.048 78.68 586.358 86.6708 591.289 97.0418C596.389 107.243 598.94 119.229 598.94 133V215.118H540.539V141.416C540.539 131.895 538.244 124.584 533.653 119.484C529.233 114.383 522.857 111.833 514.526 111.833C508.576 111.833 503.39 113.193 498.97 115.914C494.72 118.634 491.404 122.459 489.024 127.39C486.814 132.32 485.709 138.271 485.709 145.241L468.112 136.061C470.322 120.249 474.573 107.073 480.863 96.5317C487.324 85.9907 495.145 78.085 504.326 72.8145C513.676 67.3739 523.792 64.6537 534.673 64.6537Z"/>
<path d="M712.32 219.454C693.448 219.454 676.872 216.223 662.59 209.763C648.309 203.302 637.173 194.291 629.182 182.73C621.191 170.999 617.196 157.483 617.196 142.181C617.196 126.54 621.191 112.938 629.182 101.377C637.173 89.6461 648.309 80.6352 662.59 74.3446C676.872 67.884 693.533 64.6537 712.575 64.6537C731.447 64.6537 748.023 67.884 762.305 74.3446C776.586 80.6352 787.637 89.6461 795.458 101.377C803.449 112.938 807.444 126.54 807.444 142.181C807.444 157.483 803.449 170.999 795.458 182.73C787.637 194.291 776.586 203.302 762.305 209.763C748.023 216.223 731.362 219.454 712.32 219.454ZM712.575 176.609C720.226 176.609 726.686 175.249 731.957 172.529C737.397 169.809 741.478 165.898 744.198 160.798C747.088 155.527 748.533 149.322 748.533 142.181C748.533 134.87 747.088 128.665 744.198 123.564C741.478 118.294 737.397 114.298 731.957 111.578C726.686 108.858 720.226 107.498 712.575 107.498C704.924 107.498 698.379 108.858 692.938 111.578C687.498 114.298 683.332 118.294 680.442 123.564C677.722 128.665 676.362 134.785 676.362 141.926C676.362 149.237 677.722 155.527 680.442 160.798C683.332 165.898 687.498 169.809 692.938 172.529C698.379 175.249 704.924 176.609 712.575 176.609Z"/>
</mask>
<path d="M142.756 215.118L135.616 160.543L145.052 142.691L135.616 118.974L148.367 18.7492H209.063L193.506 137.336L203.452 215.118H142.756ZM154.488 142.181C152.447 157.653 147.942 171.254 140.971 182.985C134.171 194.546 125.33 203.557 114.449 210.018C103.738 216.308 91.4115 219.454 77.4702 219.454C63.3588 219.454 50.8626 216.223 39.9815 209.763C29.1005 203.302 20.5997 194.291 14.4791 182.73C8.52851 170.999 5.55322 157.483 5.55322 142.181C5.55322 126.54 8.52851 112.938 14.4791 101.377C20.5997 89.6461 29.1005 80.6352 39.9815 74.3446C50.8626 67.884 63.3588 64.6537 77.4702 64.6537C91.4115 64.6537 103.738 67.799 114.449 74.0896C125.33 80.3802 134.256 89.3911 141.226 101.122C148.197 112.683 152.617 126.37 154.488 142.181ZM64.4639 142.181C64.4639 148.642 65.739 154.337 68.2893 159.268C71.0095 164.198 74.7499 168.109 79.5104 170.999C84.2708 173.889 89.7113 175.334 95.8319 175.334C102.123 175.334 108.158 173.889 113.939 170.999C119.719 168.109 124.82 164.198 129.24 159.268C133.661 154.337 136.891 148.642 138.931 142.181C136.891 135.721 133.661 130.025 129.24 125.094C124.82 119.994 119.719 115.999 113.939 113.108C108.158 110.218 102.123 108.773 95.8319 108.773C89.7113 108.773 84.2708 110.218 79.5104 113.108C74.7499 115.999 71.0095 119.994 68.2893 125.094C65.739 130.025 64.4639 135.721 64.4639 142.181Z" fill="white"/>
<path d="M225.843 66.1838L255.17 72.3044L284.243 66.1838V215.118H225.843V66.1838ZM255.17 56.4929C245.31 56.4929 237.319 54.0276 231.198 49.0972C225.078 44.1667 222.017 37.5361 222.017 29.2052C222.017 20.7044 225.078 13.9888 231.198 9.05831C237.319 4.12783 245.31 1.6626 255.17 1.6626C265.371 1.6626 273.447 4.12783 279.398 9.05831C285.518 13.9888 288.579 20.7044 288.579 29.2052C288.579 37.5361 285.518 44.1667 279.398 49.0972C273.447 54.0276 265.371 56.4929 255.17 56.4929Z" fill="white"/>
<path d="M304.131 68.9891H362.532L372.478 129.43V215.118H314.077V120.504L304.131 68.9891ZM421.698 64.6537C435.299 64.6537 446.86 67.4589 456.381 73.0695C465.902 78.68 473.128 86.6708 478.058 97.0418C483.158 107.243 485.709 119.229 485.709 133V215.118H427.308V141.416C427.308 131.895 425.013 124.584 420.422 119.484C416.002 114.383 409.626 111.833 401.296 111.833C395.345 111.833 390.16 113.193 385.739 115.914C381.489 118.634 378.173 122.459 375.793 127.39C373.583 132.32 372.478 138.271 372.478 145.241L354.881 136.061C357.091 120.249 361.342 107.073 367.632 96.5317C374.093 85.9907 381.999 78.085 391.35 72.8145C400.701 67.3739 410.817 64.6537 421.698 64.6537ZM534.673 64.6537C548.275 64.6537 559.836 67.4589 569.357 73.0695C579.048 78.68 586.358 86.6708 591.289 97.0418C596.389 107.243 598.94 119.229 598.94 133V215.118H540.539V141.416C540.539 131.895 538.244 124.584 533.653 119.484C529.233 114.383 522.857 111.833 514.526 111.833C508.576 111.833 503.39 113.193 498.97 115.914C494.72 118.634 491.404 122.459 489.024 127.39C486.814 132.32 485.709 138.271 485.709 145.241L468.112 136.061C470.322 120.249 474.573 107.073 480.863 96.5317C487.324 85.9907 495.145 78.085 504.326 72.8145C513.676 67.3739 523.792 64.6537 534.673 64.6537Z" fill="white"/>
<path d="M712.32 219.454C693.448 219.454 676.872 216.223 662.59 209.763C648.309 203.302 637.173 194.291 629.182 182.73C621.191 170.999 617.196 157.483 617.196 142.181C617.196 126.54 621.191 112.938 629.182 101.377C637.173 89.6461 648.309 80.6352 662.59 74.3446C676.872 67.884 693.533 64.6537 712.575 64.6537C731.447 64.6537 748.023 67.884 762.305 74.3446C776.586 80.6352 787.637 89.6461 795.458 101.377C803.449 112.938 807.444 126.54 807.444 142.181C807.444 157.483 803.449 170.999 795.458 182.73C787.637 194.291 776.586 203.302 762.305 209.763C748.023 216.223 731.362 219.454 712.32 219.454ZM712.575 176.609C720.226 176.609 726.686 175.249 731.957 172.529C737.397 169.809 741.478 165.898 744.198 160.798C747.088 155.527 748.533 149.322 748.533 142.181C748.533 134.87 747.088 128.665 744.198 123.564C741.478 118.294 737.397 114.298 731.957 111.578C726.686 108.858 720.226 107.498 712.575 107.498C704.924 107.498 698.379 108.858 692.938 111.578C687.498 114.298 683.332 118.294 680.442 123.564C677.722 128.665 676.362 134.785 676.362 141.926C676.362 149.237 677.722 155.527 680.442 160.798C683.332 165.898 687.498 169.809 692.938 172.529C698.379 175.249 704.924 176.609 712.575 176.609Z" fill="white"/>
<path d="M142.756 215.118L135.616 160.543L145.052 142.691L135.616 118.974L148.367 18.7492H209.063L193.506 137.336L203.452 215.118H142.756ZM154.488 142.181C152.447 157.653 147.942 171.254 140.971 182.985C134.171 194.546 125.33 203.557 114.449 210.018C103.738 216.308 91.4115 219.454 77.4702 219.454C63.3588 219.454 50.8626 216.223 39.9815 209.763C29.1005 203.302 20.5997 194.291 14.4791 182.73C8.52851 170.999 5.55322 157.483 5.55322 142.181C5.55322 126.54 8.52851 112.938 14.4791 101.377C20.5997 89.6461 29.1005 80.6352 39.9815 74.3446C50.8626 67.884 63.3588 64.6537 77.4702 64.6537C91.4115 64.6537 103.738 67.799 114.449 74.0896C125.33 80.3802 134.256 89.3911 141.226 101.122C148.197 112.683 152.617 126.37 154.488 142.181ZM64.4639 142.181C64.4639 148.642 65.739 154.337 68.2893 159.268C71.0095 164.198 74.7499 168.109 79.5104 170.999C84.2708 173.889 89.7113 175.334 95.8319 175.334C102.123 175.334 108.158 173.889 113.939 170.999C119.719 168.109 124.82 164.198 129.24 159.268C133.661 154.337 136.891 148.642 138.931 142.181C136.891 135.721 133.661 130.025 129.24 125.094C124.82 119.994 119.719 115.999 113.939 113.108C108.158 110.218 102.123 108.773 95.8319 108.773C89.7113 108.773 84.2708 110.218 79.5104 113.108C74.7499 115.999 71.0095 119.994 68.2893 125.094C65.739 130.025 64.4639 135.721 64.4639 142.181Z" stroke="white" stroke-width="2" mask="url(#path-1-outside-1_822_9774)"/>
<path d="M225.843 66.1838L255.17 72.3044L284.243 66.1838V215.118H225.843V66.1838ZM255.17 56.4929C245.31 56.4929 237.319 54.0276 231.198 49.0972C225.078 44.1667 222.017 37.5361 222.017 29.2052C222.017 20.7044 225.078 13.9888 231.198 9.05831C237.319 4.12783 245.31 1.6626 255.17 1.6626C265.371 1.6626 273.447 4.12783 279.398 9.05831C285.518 13.9888 288.579 20.7044 288.579 29.2052C288.579 37.5361 285.518 44.1667 279.398 49.0972C273.447 54.0276 265.371 56.4929 255.17 56.4929Z" stroke="white" stroke-width="2" mask="url(#path-1-outside-1_822_9774)"/>
<path d="M304.131 68.9891H362.532L372.478 129.43V215.118H314.077V120.504L304.131 68.9891ZM421.698 64.6537C435.299 64.6537 446.86 67.4589 456.381 73.0695C465.902 78.68 473.128 86.6708 478.058 97.0418C483.158 107.243 485.709 119.229 485.709 133V215.118H427.308V141.416C427.308 131.895 425.013 124.584 420.422 119.484C416.002 114.383 409.626 111.833 401.296 111.833C395.345 111.833 390.16 113.193 385.739 115.914C381.489 118.634 378.173 122.459 375.793 127.39C373.583 132.32 372.478 138.271 372.478 145.241L354.881 136.061C357.091 120.249 361.342 107.073 367.632 96.5317C374.093 85.9907 381.999 78.085 391.35 72.8145C400.701 67.3739 410.817 64.6537 421.698 64.6537ZM534.673 64.6537C548.275 64.6537 559.836 67.4589 569.357 73.0695C579.048 78.68 586.358 86.6708 591.289 97.0418C596.389 107.243 598.94 119.229 598.94 133V215.118H540.539V141.416C540.539 131.895 538.244 124.584 533.653 119.484C529.233 114.383 522.857 111.833 514.526 111.833C508.576 111.833 503.39 113.193 498.97 115.914C494.72 118.634 491.404 122.459 489.024 127.39C486.814 132.32 485.709 138.271 485.709 145.241L468.112 136.061C470.322 120.249 474.573 107.073 480.863 96.5317C487.324 85.9907 495.145 78.085 504.326 72.8145C513.676 67.3739 523.792 64.6537 534.673 64.6537Z" stroke="white" stroke-width="2" mask="url(#path-1-outside-1_822_9774)"/>
<path d="M712.32 219.454C693.448 219.454 676.872 216.223 662.59 209.763C648.309 203.302 637.173 194.291 629.182 182.73C621.191 170.999 617.196 157.483 617.196 142.181C617.196 126.54 621.191 112.938 629.182 101.377C637.173 89.6461 648.309 80.6352 662.59 74.3446C676.872 67.884 693.533 64.6537 712.575 64.6537C731.447 64.6537 748.023 67.884 762.305 74.3446C776.586 80.6352 787.637 89.6461 795.458 101.377C803.449 112.938 807.444 126.54 807.444 142.181C807.444 157.483 803.449 170.999 795.458 182.73C787.637 194.291 776.586 203.302 762.305 209.763C748.023 216.223 731.362 219.454 712.32 219.454ZM712.575 176.609C720.226 176.609 726.686 175.249 731.957 172.529C737.397 169.809 741.478 165.898 744.198 160.798C747.088 155.527 748.533 149.322 748.533 142.181C748.533 134.87 747.088 128.665 744.198 123.564C741.478 118.294 737.397 114.298 731.957 111.578C726.686 108.858 720.226 107.498 712.575 107.498C704.924 107.498 698.379 108.858 692.938 111.578C687.498 114.298 683.332 118.294 680.442 123.564C677.722 128.665 676.362 134.785 676.362 141.926C676.362 149.237 677.722 155.527 680.442 160.798C683.332 165.898 687.498 169.809 692.938 172.529C698.379 175.249 704.924 176.609 712.575 176.609Z" stroke="white" stroke-width="2" mask="url(#path-1-outside-1_822_9774)"/>
</g>
<defs>
<filter id="filter0_d_822_9774" x="0.553223" y="0.662598" width="811.891" height="227.791" filterUnits="userSpaceOnUse" color-interpolation-filters="sRGB">
<feFlood flood-opacity="0" result="BackgroundImageFix"/>
<feColorMatrix in="SourceAlpha" type="matrix" values="0 0 0 0 0 0 0 0 0 0 0 0 0 0 0 0 0 0 127 0" result="hardAlpha"/>
<feOffset dy="4"/>
<feGaussianBlur stdDeviation="2"/>
<feComposite in2="hardAlpha" operator="out"/>
<feColorMatrix type="matrix" values="0 0 0 0 0 0 0 0 0 0 0 0 0 0 0 0 0 0 0.25 0"/>
<feBlend mode="normal" in2="BackgroundImageFix" result="effect1_dropShadow_822_9774"/>
<feBlend mode="normal" in="SourceGraphic" in2="effect1_dropShadow_822_9774" result="shape"/>
</filter>
</defs>
</svg>
