<svg width="29" height="28" viewBox="0 0 29 28" fill="none" xmlns="http://www.w3.org/2000/svg">
<g id="arrow_forward_ios">
<mask id="mask0_1276_625" style="mask-type:alpha" maskUnits="userSpaceOnUse" x="0" y="0" width="29" height="28">
<rect id="Bounding box" x="0.5" width="28" height="28" fill="#D9D9D9"/>
</mask>
<g mask="url(#mask0_1276_625)">
<path id="arrow_forward_ios_2" d="M17.3871 13.9993L8.81206 5.42435C8.52039 5.13268 8.37942 4.78754 8.38914 4.38893C8.39886 3.99032 8.54956 3.64518 8.84123 3.35352C9.13289 3.06185 9.47803 2.91602 9.87664 2.91602C10.2753 2.91602 10.6204 3.06185 10.9121 3.35352L19.8662 12.3368C20.0996 12.5702 20.2746 12.8327 20.3912 13.1243C20.5079 13.416 20.5662 13.7077 20.5662 13.9993C20.5662 14.291 20.5079 14.5827 20.3912 14.8743C20.2746 15.166 20.0996 15.4285 19.8662 15.6618L10.8829 24.6452C10.5912 24.9368 10.2509 25.0778 9.86206 25.0681C9.47317 25.0584 9.13289 24.9077 8.84123 24.616C8.54956 24.3243 8.40373 23.9792 8.40373 23.5806C8.40373 23.182 8.54956 22.8368 8.84123 22.5452L17.3871 13.9993Z" fill="#252525"/>
</g>
</g>
</svg>
