<svg width="196" height="293" viewBox="0 0 196 293" fill="none" xmlns="http://www.w3.org/2000/svg">
<path d="M195.172 20.3325V224.352C195.172 235.088 186.477 243.783 175.741 243.783H166.026C155.3 243.783 146.596 235.088 146.596 224.352V166.061C146.596 155.335 137.9 146.63 127.165 146.63H117.45C117.226 146.63 117.003 146.63 116.779 146.611H79.2593C79.0359 146.63 78.8124 146.63 78.589 146.63H68.8737C58.1481 146.63 49.4433 155.335 49.4433 166.061V224.352C49.4433 235.088 58.1481 243.783 68.8737 243.783H127.165C137.9 243.783 146.596 252.487 146.596 263.213V272.928C146.596 283.664 137.9 292.359 127.165 292.359H68.8737C58.1481 292.359 49.4433 283.664 49.4433 272.928V263.213C49.4433 252.487 40.7482 243.783 30.0129 243.783H20.2976C9.57203 243.783 0.867188 235.088 0.867188 224.352V166.061C0.867188 155.335 9.57203 146.63 20.2976 146.63H30.0129C40.7482 146.63 49.4433 137.935 49.4433 127.2V117.485C49.4433 106.759 58.1481 98.0543 68.8737 98.0543H74.8972V98.0349H123.473V98.0543H127.165C137.9 98.0543 146.596 106.749 146.596 117.485V20.3325C146.596 9.60694 155.3 0.9021 166.026 0.9021H175.741C186.477 0.9021 195.172 9.60694 195.172 20.3325Z" fill="#FFFC43"/>
</svg>
