<svg width="32" height="32" viewBox="0 0 32 32" fill="none" xmlns="http://www.w3.org/2000/svg">
<rect width="32" height="32" rx="16" fill="#B0B0B0"/>
<path d="M23.7361 8.9026C22.3128 8.24945 20.7877 7.76852 19.1922 7.4934C19.1629 7.48798 19.1337 7.50099 19.1196 7.52806C18.9235 7.87684 18.7058 8.33286 18.5542 8.6903C16.8385 8.43359 15.1314 8.43359 13.4503 8.6903C13.2976 8.32419 13.0723 7.87684 12.8752 7.52806C12.86 7.50207 12.8308 7.48906 12.8026 7.4934C11.2082 7.76852 9.68199 8.24945 8.25871 8.9026C8.24679 8.90801 8.23596 8.91668 8.22838 8.92859C5.33415 13.2526 4.54125 17.4705 4.93011 21.6363C4.93228 21.6569 4.94311 21.6764 4.95936 21.6883C6.86898 23.091 8.71905 23.9424 10.5344 24.5067C10.5637 24.5154 10.594 24.5045 10.6124 24.4807C11.0414 23.8947 11.4248 23.2762 11.753 22.6252C11.7725 22.5873 11.753 22.5418 11.714 22.5267C11.1063 22.296 10.529 22.0154 9.97226 21.697C9.92785 21.671 9.92462 21.6081 9.9647 21.5778C10.0817 21.4901 10.1987 21.3991 10.3102 21.307C10.3308 21.2897 10.359 21.2864 10.3828 21.2973C14.0363 22.9653 17.992 22.9653 21.6022 21.2973C21.6261 21.2854 21.6542 21.2897 21.6748 21.3059C21.7864 21.398 21.9033 21.4901 22.0214 21.5778C22.0615 21.6081 22.0593 21.671 22.0149 21.697C21.4593 22.0219 20.8808 22.297 20.2721 22.5267C20.232 22.5418 20.2147 22.5873 20.2342 22.6263C20.57 23.2762 20.9523 23.8936 21.3737 24.4807C21.391 24.5056 21.4224 24.5164 21.4517 24.5078C23.2757 23.9434 25.1258 23.0921 27.0354 21.6894C27.0516 21.6775 27.0625 21.658 27.0646 21.6385C27.5304 16.8227 26.2848 12.6395 23.7642 8.93076C23.7577 8.91885 23.748 8.9091 23.735 8.90368L23.7361 8.9026ZM12.2967 19.0995C11.1962 19.0995 10.2907 18.09 10.2907 16.8498C10.2907 15.6096 11.18 14.6 12.2967 14.6C13.4135 14.6 14.3212 15.6193 14.3028 16.8498C14.3028 18.09 13.4135 19.0995 12.2967 19.0995ZM19.7153 19.0995C18.6148 19.0995 17.7093 18.09 17.7093 16.8498C17.7093 15.6096 18.5986 14.6 19.7153 14.6C20.8321 14.6 21.7398 15.6193 21.7214 16.8498C21.7214 18.09 20.8418 19.0995 19.7153 19.0995Z" fill="#3D3D3D"/>
</svg>
