<svg width="1920" height="255" viewBox="0 0 1920 255" fill="none" xmlns="http://www.w3.org/2000/svg">
<g opacity="0.4">
<path d="M1390.2 409.501L1265.08 427.584L1140.88 437.732L1118.26 434.048L1096.18 432.233L1074.73 429.595L1053.98 423.071L1034.06 409.197L1014.89 386.3L996.16 359.714L977.79 332.216L959.685 305.788L941.852 281.872L924.247 261.37L906.893 244.622L889.863 231.479L873.122 221.241L856.72 212.753L750.321 205.777L735.263 195.342L720.422 179.351L705.725 159.385L691.201 137.102" stroke="#D1D1D1" stroke-width="1.08501" stroke-linecap="round" stroke-linejoin="round"/>
<path d="M-118.393 66.6992L-114.004 67.6504L-110.893 68.3255L0.690464 92.6237L7.90244 95.1972L46.4669 104.381L48.3785 104.554L67.8976 109.702L102.511 118.281L118.91 122.197L127.456 124.602L131.938 125.808L168.037 135.491L192.391 141.763L235.788 152.911L239.533 154.204L245.752 156.361L255.718 159.005L304.649 172.006L322.511 176.752L362.408 187.348L366.931 188.404L409.48 198.236L477.273 213.923L480.149 214.38L590.401 231.842L702.37 241.437L813.661 252.115L924.249 261.365L1034.31 266.826L1144.19 267.128L1254.18 261.751L1364.55 251.088L1475.52 236.436L1587.02 219.985L1698.64 204.937L1809.64 195.055L1919.64 191.107L2028.48 191.811L2136.3 195.829" stroke="#D1D1D1" stroke-width="1.08501" stroke-linecap="round" stroke-linejoin="round"/>
<path d="M-95.0723 108.062L26.3468 125.527L147.574 150.337L268.005 180.414L270.108 180.978L387.082 212.634L389.221 213.189L504.399 242.898L619.9 266.228L734.03 281.268L847.264 295.285L959.681 305.785L1071.62 310.676L1183.47 308.94L1295.66 300.562L1408.41 286.526L1521.89 268.866L1635.85 250.694L1749.6 236.233L1862.19 229.696L1973.36 229.926L2083.24 234.801L2191.95 242.405" stroke="#D1D1D1" stroke-width="1.08501" stroke-linecap="round" stroke-linejoin="round"/>
<path d="M171.649 203.671L49.6222 187.304L-71.9492 180.166" stroke="#D1D1D1" stroke-width="1.08501" stroke-linecap="round" stroke-linejoin="round"/>
<path d="M2150.47 298.428L2026.9 297.027L1900.4 308.468L1772.28 330.605L1643.99 357.788L1516.49 385.311L1390.19 409.495L1364.18 405.909L1338.5 406.691L1313.39 408.602L1289.22 407.619L1266.33 399.046L1244.7 380.272L1223.86 357.365L1203.5 332.975L1183.47 308.937L1163.71 286.669L1144.18 267.128L1124.82 250.824L1105.68 237.881L1086.8 227.96L1068.19 220.355L1050.04 211.929L1032.45 197.266L1015.37 177.672L998.676 154.734" stroke="#D1D1D1" stroke-width="1.08501" stroke-linecap="round" stroke-linejoin="round"/>
<path d="M-84.0547 140.992L37.5234 153.39L159.245 174.195L280.384 201.719L281.35 201.97L400.378 232.976L518.715 263.821L635.282 289.043L750.389 306.418L864.511 321.632L977.796 332.215L1090.64 336.263L1203.51 332.98L1316.8 322.59L1430.84 306.418L1545.62 286.875L1660.85 267.516L1775.75 253.129L1889.15 248.069L2000.97 250.129L2111.36 256.806L2220.56 265.927" stroke="#D1D1D1" stroke-width="1.08501" stroke-linecap="round" stroke-linejoin="round"/>
<path d="M1469.22 180.621L1575.01 165.364L1680.97 151.239L1706.24 155.676L1732.01 160.746L1757.81 169.123L1783.7 180.67L1809.64 195.055L1835.76 211.664L1862.2 229.695L1889.15 248.065L1916.84 265.443L1945.7 280.255L1993.62 282.234" stroke="#D1D1D1" stroke-width="1.08501" stroke-linecap="round" stroke-linejoin="round"/>
<path d="M2427.82 336.813L2305.9 328.917L2182.52 324.12L2058.01 321.76L1930.76 330.614L1801.8 349.571L1672.54 373.48L1543.89 398.048L1416.26 419.848L1289.65 436.282L1163.85 445.517L1038.42 446.422L912.767 438.555L810.7 425.303L786.242 422.126L658.395 399.395L529.034 375.418L398.381 354.569L266.991 339.972L135.517 333.446L125.743 328.116L116.194 322.425L106.548 314.242L96.5404 301.7L85.9303 283.184L74.538 257.266L62.2029 223.636L49.6411 187.3L37.5279 153.384L26.3627 125.524L16.4308 105.904L7.54931 94.711L0.699219 92.623" stroke="#D1D1D1" stroke-width="1.08501" stroke-linecap="round" stroke-linejoin="round"/>
<path d="M1385.49 200.097L1492.09 185.706L1599.13 169.949L1623.77 174.564L1648.56 181.958L1673.5 192.152L1698.64 204.942L1723.97 219.867L1749.61 236.236L1775.75 253.129L1802.55 269.332L1830.36 283.398L1859.58 293.207L1874.74 292.823" stroke="#D1D1D1" stroke-width="1.08501" stroke-linecap="round" stroke-linejoin="round"/>
<path d="M2547.81 348.539L2427.81 336.813L2392.55 314.663L2272.44 304.46L2150.47 298.428L2116.4 284.865L2080.88 281.668L2053.3 281.841L1993.61 282.234L1959.79 282.452L1954.38 283.114L1933.22 285.694L1874.73 292.818L1872.8 293.058L1862.76 294.275L1858.38 294.819L1835.85 297.555L1802.98 302.945L1772.52 308.968L1742.03 315.677L1728.34 319.052L1710.53 323.202L1708.91 323.587L1662.55 334.664L1601.98 349.137L1585.4 353.102L1574.68 355.608L1541.14 363.477L1476 378.747L1461.29 382.197L1434.22 385.917L1408.11 387.521L1383.49 381.663L1360.47 365.248L1338.33 344.727L1316.79 322.585L1295.66 300.561L1274.78 279.965L1254.17 261.751L1233.72 246.456L1213.47 234.281L1193.44 225.018L1173.71 218.169L1068.19 220.355L962.624 218.207L856.716 212.748L840.658 202.824L735.259 195.336L629.387 189.082L523.232 186.744L416.352 179.615L308.345 165.757L297.437 153.054L189.535 138.416L179.875 126.696L170.113 112.572" stroke="#D1D1D1" stroke-width="1.08501" stroke-linecap="round" stroke-linejoin="round"/>
<path d="M1680.96 151.239L1786.63 140.363L1891.77 132.868L1919.2 138.253L2024.64 134.765" stroke="#D1D1D1" stroke-width="1.08501" stroke-linecap="round" stroke-linejoin="round"/>
<path d="M1258.94 204.639L1363.82 194.295L1469.2 180.624L1492.07 185.705L1515.48 190.45L1539.13 197.705L1562.97 207.587L1587.01 219.989L1611.27 234.56L1635.84 250.695L1660.84 267.515L1686.48 283.884L1712.97 298.382L1740.73 308.889L1772.52 308.971L1802.97 302.948" stroke="#D1D1D1" stroke-width="1.08501" stroke-linecap="round" stroke-linejoin="round"/>
<path d="M321.561 174.421L341.741 177.297L428.251 189.627L536.211 197.579L643.415 199.856L750.315 205.775L765.634 214.269L873.116 221.239L980.12 226.388L1086.8 227.964L1193.43 225.021L1300.32 217.332L1407.64 205.385L1515.49 190.45L1623.75 174.563L1732 160.749L1839.73 151.243L1946.76 145.841L2052.97 144.002" stroke="#D1D1D1" stroke-width="1.08501" stroke-linecap="round" stroke-linejoin="round"/>
<path d="M1173.72 218.175L1279.38 211.293L1385.49 200.098L1407.65 205.388L1430.06 213.088L1452.69 223.44L1475.52 236.441L1498.59 251.778L1521.9 268.87L1545.62 286.877L1569.87 304.601L1594.9 320.594L1621.06 332.632L1649.4 334.021L1679.51 328.746L1710.54 323.208L1741.69 322.574L1811.85 309.058L1868.6 298.134" stroke="#D1D1D1" stroke-width="1.08501" stroke-linecap="round" stroke-linejoin="round"/>
<path d="M297.439 153.057L404.277 164.21L510.13 170.147L615.433 172.763L720.419 179.348L824.894 187.209L928.867 193.792L1032.46 197.269L1135.89 196.572L1239.42 191.284L1343.29 181.713L1447.58 168.822L1552.26 154.333L1657.07 140.855L1761.63 130.518L1865.66 123.638L1969.04 120.101L1996.33 128.557" stroke="#D1D1D1" stroke-width="1.08501" stroke-linecap="round" stroke-linejoin="round"/>
<path d="M549.288 204.922L657.643 207.971" stroke="#D1D1D1" stroke-width="1.08501" stroke-linecap="round" stroke-linejoin="round"/>
<path d="M2080.96 157.673L1974.15 157.628L1866.4 161.176L1757.79 169.125L1648.55 181.956L1539.13 197.704L1430.05 213.085L1321.51 225.773L1213.47 234.283L1105.68 237.884L997.908 236.672L889.859 231.476L781.287 223.955L672.184 216.584L562.611 211.897L479.995 202.973L456.659 200.446L452.11 199.957L440.101 195.41L428.253 189.626L416.352 179.617L404.275 164.21L392.093 144.957L379.912 123.369" stroke="#D1D1D1" stroke-width="1.08501" stroke-linecap="round" stroke-linejoin="round"/>
<path d="M2108.69 175.191L2001.34 173.159L1893.02 174.629L1783.7 180.67L1673.5 192.148L1562.98 207.584L1452.69 223.435L1342.96 237.007L1233.72 246.456L1124.82 250.825L1015.98 249.98L906.895 244.617L797.313 236.275L687.093 227.359L576.296 220.413L562.617 211.895L549.288 204.921L442.541 195.615L440.108 195.407L433.94 194.42L383.67 186.345L349.056 180.864L343.342 179.886L343.101 179.82L321.569 174.418L318.498 173.657L314.185 172.568L264.703 160.163L244.104 154.988L243.862 154.934L235.253 153.159L192.391 141.763L191.989 141.407L171.124 135.914L168.469 135.216L131.809 125.584L127.322 124.487L102.511 118.281L67.8977 109.702L46.4669 104.381L24.6728 98.617L7.5406 94.7117L-109.765 71.1481L-112.323 70.6288L-118.393 66.6992" stroke="#D1D1D1" stroke-width="1.08501" stroke-linecap="round" stroke-linejoin="round"/>
<path d="M840.65 202.825L945.516 208.969L1050.04 211.932L1154.4 210.61L1258.94 204.638L1279.37 211.289L1300.32 217.33L1321.5 225.773L1342.94 237.009L1364.54 251.089L1386.36 267.788L1408.41 286.526L1430.82 306.415L1453.69 326.216L1477.23 344.334L1501.75 358.416L1528.23 361.816L1556.31 358.065L1575.26 353.551L1597.59 348.242L1655.97 334.347L1679.5 328.742L1705.53 323.305L1728.33 319.054L1754.66 314.175L1780.02 308.981L1835.84 297.557L1868.59 298.13L1920.38 292.525L1930.59 291.425L1967.48 287.428L1993.95 284.554L2116.39 284.867L2236.83 291.593L2260.94 293.969L2355.26 303.27L2392.54 314.665L2510.69 328.839L2547.8 348.541" stroke="#D1D1D1" stroke-width="1.08501" stroke-linecap="round" stroke-linejoin="round"/>
<path d="M348.82 180.735L343.104 179.822" stroke="#D1D1D1" stroke-width="1.08501" stroke-linecap="round" stroke-linejoin="round"/>
<path d="M103.831 118.429L105.047 118.56L106.574 118.728L179.881 126.697L286.409 136.997L392.1 144.956L497.071 149.532L601.52 152.536L705.727 159.38L809.427 167.369L912.594 174.047L1015.38 177.673L1117.99 177.222L1220.67 172.344L1323.6 163.341L1426.95 151.205L1530.65 137.632L1634.44 125.122L1737.91 115.827L1840.83 110.239L1942.98 108.404" stroke="#D1D1D1" stroke-width="1.08501" stroke-linecap="round" stroke-linejoin="round"/>
<path d="M1202.47 149.34L1220.66 172.345L1239.42 191.284L1258.95 204.638" stroke="#D1D1D1" stroke-width="1.08501" stroke-linecap="round" stroke-linejoin="round"/>
<path d="M1304.63 140.672L1323.6 163.341L1343.29 181.711L1363.84 194.293L1385.49 200.093" stroke="#D1D1D1" stroke-width="1.08501" stroke-linecap="round" stroke-linejoin="round"/>
<path d="M1407.15 129.176L1426.95 151.206L1447.58 168.822L1469.21 180.623" stroke="#D1D1D1" stroke-width="1.08501" stroke-linecap="round" stroke-linejoin="round"/>
<path d="M1509.98 116.564L1530.66 137.631L1552.28 154.331L1575.02 165.364L1599.14 169.945L1706.25 155.675L1813.02 145.111L1839.76 151.24L1866.42 161.173L1893.03 174.629L1919.65 191.107L1946.37 209.86L1973.38 229.924L2000.98 250.124L2029.4 269.031L2140.42 277.219L2156.08 286.012" stroke="#D1D1D1" stroke-width="1.08501" stroke-linecap="round" stroke-linejoin="round"/>
<path d="M1612.76 105.232L1634.44 125.122L1657.08 140.853L1680.97 151.239" stroke="#D1D1D1" stroke-width="1.08501" stroke-linecap="round" stroke-linejoin="round"/>
<path d="M1715.26 97.1289L1737.9 115.829L1761.63 130.518L1786.63 140.365L1813.01 145.114L1919.19 138.255L1946.77 145.84L1974.15 157.628L2001.33 173.161L2028.48 191.813L2055.69 212.716L2083.24 234.802L2111.35 256.803L2140.41 277.222L2250.21 287.669" stroke="#D1D1D1" stroke-width="1.08501" stroke-linecap="round" stroke-linejoin="round"/>
<path d="M1817.1 93.0352L1840.82 110.245L1865.66 123.642L1891.76 132.874L1996.33 128.561L2024.63 134.771L2052.97 144.006L2080.97 157.677L2108.69 175.198L2136.3 195.835L2163.96 218.613L2191.95 242.41L2220.55 265.929L2250.21 287.673L2260.95 293.974" stroke="#D1D1D1" stroke-width="1.08501" stroke-linecap="round" stroke-linejoin="round"/>
<path d="M1918.05 93.1582L1942.98 108.404L1969.04 120.1" stroke="#D1D1D1" stroke-width="1.08501" stroke-linecap="round" stroke-linejoin="round"/>
<path d="M297.438 153.059L286.403 137L275.299 118.604" stroke="#D1D1D1" stroke-width="1.08501" stroke-linecap="round" stroke-linejoin="round"/>
<path d="M840.67 202.822L824.904 187.204L809.432 167.366L794.184 144.941" stroke="#D1D1D1" stroke-width="1.08501" stroke-linecap="round" stroke-linejoin="round"/>
<path d="M1543.88 398.053L1516.51 385.316L1488.86 380.838L1461.3 382.201L1446.44 385.174L1420.21 390.395L1401.08 394.212L1375.41 399.338L1351.33 404.143L1338.51 406.696L1322.46 408.972L1300.96 412.017L1277.72 415.299L1227.49 422.415L1216.92 423.913L1193.73 423.618L1171.35 419.847L1150.02 408.54L1129.68 387.533L1109.94 362.537L1090.64 336.263L1071.63 310.678L1052.87 287.211L1034.32 266.83L1015.99 249.984L997.92 236.674L980.134 226.388L962.636 218.211L945.535 208.971L928.877 193.793L912.599 174.05L896.629 151.363" stroke="#D1D1D1" stroke-width="1.08501" stroke-linecap="round" stroke-linejoin="round"/>
<path d="M2053.31 281.845L2029.39 269.035L1916.84 265.447L1802.55 269.332L1686.49 283.885L1569.88 304.6L1453.71 326.219L1338.34 344.731L1223.87 357.37L1109.94 362.537L996.166 359.712L881.992 349.504L767.061 333.632L651.022 314.49L533.461 288.1L414.206 257.497L293.401 227.992L171.663 203.672L159.245 174.195L147.585 150.339L136.995 133.7L127.326 124.491L118.914 122.201" stroke="#D1D1D1" stroke-width="1.08501" stroke-linecap="round" stroke-linejoin="round"/>
<path d="M1289.64 436.285L1265.09 427.582L1240.81 424.249L1216.92 423.912L1201.69 424.959L1160.32 427.805L1096.19 432.23L975.672 431.022L955.86 426.177L936.617 417.245L917.971 401.268L899.805 376.976L881.992 349.503L864.511 321.631L847.275 295.286L830.327 271.857L813.665 252.118L797.316 236.278L781.297 223.955L765.647 214.268L657.647 207.973L643.427 199.856L629.397 189.085L615.442 172.764L601.524 152.538L587.775 130.115" stroke="#D1D1D1" stroke-width="1.08501" stroke-linecap="round" stroke-linejoin="round"/>
<path d="M1163.84 445.515L1140.88 437.724L1017.01 438.863L892.94 430.707L873.637 425.405L854.8 420.604L836.496 414.082L818.655 403.445L801.154 386.068L783.963 361.068L767.055 333.625L750.382 306.411L734.035 281.263L718.027 259.404L702.367 241.434L687.091 227.356L672.188 216.578L657.641 207.967" stroke="#D1D1D1" stroke-width="1.08501" stroke-linecap="round" stroke-linejoin="round"/>
<path d="M658.386 399.398L641.712 390.734L625.533 384.274L609.76 378.074L600.422 376.222L592.814 374.7L492.204 354.684L485.01 353.246L470.973 344.156L456.956 330.767L442.777 310.922L428.41 284.423L414.202 257.495L400.373 232.974L387.089 212.634L374.411 197.396L362.407 187.35L351.002 181.805" stroke="#D1D1D1" stroke-width="1.08501" stroke-linecap="round" stroke-linejoin="round"/>
<path d="M786.232 422.128L768.01 413.754L750.274 407.781L733.006 402.233L724.255 400.517L621.901 380.455L609.76 378.074L594.314 370.054L579.052 357.973L563.8 339.466L548.542 314.159L533.457 288.097L518.71 263.818L504.405 242.898L490.572 226.211L477.273 213.924L464.46 205.555L422.389 196.737L357.363 183.129L351.002 181.805" stroke="#D1D1D1" stroke-width="1.08501" stroke-linecap="round" stroke-linejoin="round"/>
<path d="M1038.41 446.424L1017.01 438.867L996.068 434.44L975.668 431.02L901.314 424.607L856.784 420.774L854.802 420.608L844.96 419.116L760.804 406.422L734.462 402.451L733.006 402.232L716.13 394.977L699.575 383.689L683.245 365.875L666.994 340.927L651.018 314.487L635.278 289.039L619.907 266.227L604.965 247.035L590.401 231.842L576.296 220.414L488.326 208.716L464.46 205.554L452.116 199.955L447.755 199.147L416.192 193.324L356.32 182.273L350.148 181.394L343.342 179.887" stroke="#D1D1D1" stroke-width="1.08501" stroke-linecap="round" stroke-linejoin="round"/>
<path d="M1173.72 218.172L1154.42 210.612L1135.89 196.572L1117.99 177.224L1100.54 154.154" stroke="#D1D1D1" stroke-width="1.08501" stroke-linecap="round" stroke-linejoin="round"/>
<path d="M318.493 173.655L308.346 165.755L244.065 154.963L243.857 154.932" stroke="#D1D1D1" stroke-width="1.08501" stroke-linecap="round" stroke-linejoin="round"/>
<path d="M549.285 204.922L536.216 197.577L523.235 186.745L510.131 170.145L497.068 149.532L484.004 126.639" stroke="#D1D1D1" stroke-width="1.08501" stroke-linecap="round" stroke-linejoin="round"/>
<path d="M47.8871 104.435L64.3403 105.603L170.111 112.573L275.296 118.599L379.91 123.367L483.998 126.638L587.763 130.113L691.195 137.097L794.17 144.944L896.615 151.36L998.675 154.736L1100.53 154.152L1202.47 149.339L1304.62 140.672L1407.14 129.174L1509.96 116.565L1612.75 105.232L1715.26 97.1272L1817.1 93.0293L1918.05 93.1579" stroke="#D1D1D1" stroke-width="1.08501" stroke-linecap="round" stroke-linejoin="round"/>
<path d="M-123.133 70.2305L-111.039 72.8826L-105.833 82.0107L-104.572 84.2283L16.4124 105.907L76.7141 119.803L136.981 133.699L199.159 150.113L256.438 165.249L262.264 166.832L335.414 186.765L374.402 197.397L377.646 198.198L490.563 226.212L604.956 247.036L718.02 259.409L830.313 271.856L941.844 281.868L1052.85 287.209L1163.71 286.672L1274.77 279.968L1386.36 267.788L1498.58 251.774L1611.27 234.559L1723.95 219.865L1835.75 211.666L1946.35 209.862L2055.69 212.716L2163.95 218.608" stroke="#D1D1D1" stroke-width="1.08501" stroke-linecap="round" stroke-linejoin="round"/>
<path d="M1872.81 293.06L1859.57 293.204L1852.73 294.106L1827.66 297.416L1825.56 297.702L1740.74 308.887L1621.06 332.628L1572.63 343.099L1501.77 358.416L1433.39 371.859L1383.5 381.664L1266.33 399.048L1150.01 408.537L1034.06 409.193L917.967 401.266L801.156 386.072L683.246 365.875L563.801 339.465L442.777 310.922L320.465 285.419L306.882 257.024L293.397 227.99L280.38 201.716L268.012 180.414L256.448 165.248L245.752 156.363L234.719 153.398" stroke="#D1D1D1" stroke-width="1.08501" stroke-linecap="round" stroke-linejoin="round"/>
<path d="M4.52456 335.372L-3.16513 331.784L-10.8729 327.05L-18.8825 318.951L-27.5281 305.62L-37.0214 285.561L-47.6568 257.561L-59.513 221.049L-71.9395 180.169L-84.0592 140.994L-95.0655 108.067L-99.8629 96.0765L-100.332 94.8769L-101.555 91.81L-102.622 89.1648L-104.562 84.2324" stroke="#D1D1D1" stroke-width="1.08501" stroke-linecap="round" stroke-linejoin="round"/>
<path d="M67.6248 109.362L64.3398 105.602" stroke="#D1D1D1" stroke-width="1.08501" stroke-linecap="round" stroke-linejoin="round"/>
<path d="M1954.38 283.117L1945.68 280.258L1830.35 283.397L1712.98 298.382L1594.9 320.591L1477.24 344.336L1360.47 365.252L1244.7 380.276L1129.67 387.532L1014.88 386.298L899.796 376.977L783.96 361.074L666.989 340.93L548.537 314.161L428.405 284.425L306.877 257.026L184.574 235.932L62.189 223.64L-59.5178 221.046" stroke="#D1D1D1" stroke-width="1.08501" stroke-linecap="round" stroke-linejoin="round"/>
<path d="M192.952 141.658L189.539 138.416L168.467 135.217" stroke="#D1D1D1" stroke-width="1.08501" stroke-linecap="round" stroke-linejoin="round"/>
<path d="M1741.7 322.573L1684.47 335.745L1614.82 351.783L1585.42 353.106L1556.33 358.067L1535.71 362.777L1469.95 377.768L1447.52 382.888L1434.23 385.922L1415.86 389.369L1320.65 407.243L1313.4 408.607L1297.26 410.628L1215.94 420.835L1197.41 423.152L1193.73 423.619L1074.74 429.594L955.863 426.179L836.505 414.089L827.98 412.744L716.137 394.981L708.495 393.413L606.769 372.605L594.321 370.057L587.857 368.707L470.98 344.158L346.454 322.091L333.627 307.086L209.724 290.525L85.9284 283.189L-37.0143 285.559" stroke="#D1D1D1" stroke-width="1.08501" stroke-linecap="round" stroke-linejoin="round"/>
<path d="M1770.92 308.965L1765.42 310.102L1725.55 318.319L1708.85 321.755L1649.39 334.019L1592.23 347.129L1561.56 354.168L1528.23 361.818L1460.68 376.281L1408.11 387.525L1289.22 407.624L1171.34 419.847L1053.98 423.069L936.606 417.245L818.651 403.451L699.568 383.692L694.038 382.515L579.046 357.975L456.95 330.769L333.613 307.086L320.458 285.421L197.452 266.783L74.5222 257.271L-47.6636 257.559" stroke="#D1D1D1" stroke-width="1.08501" stroke-linecap="round" stroke-linejoin="round"/>
<path d="M1614.81 351.778L1555.88 365.365L1488.85 380.833L1476.56 383.312L1429.86 392.693L1364.18 405.909L1339.1 409.633L1307.27 414.371L1278.91 418.58L1240.8 424.246L1211.38 426.594L1180.45 429.071L1118.25 434.043L996.06 434.439L945.558 430.718L873.631 425.408L849.777 421.995L757.131 408.755L750.266 407.779L742.446 406.302L672.03 393.04L631.372 385.377L625.525 384.273L608.052 380.941L503.29 360.934L499.276 360.163L470.553 355.604L374.023 340.278L371.91 339.943L337 336.359L243.98 326.789L232.755 318.797L221.409 307.297L209.709 290.52L197.45 266.779L184.571 235.928L171.65 203.668" stroke="#D1D1D1" stroke-width="1.08501" stroke-linecap="round" stroke-linejoin="round"/>
</g>
</svg>
