<svg width="32" height="32" viewBox="0 0 32 32" fill="none" xmlns="http://www.w3.org/2000/svg">
<rect width="32" height="32" rx="16" fill="#B0B0B0"/>
<path d="M20.7834 6.83203H11.2168C8.57391 6.83203 6.42383 8.98212 6.42383 11.625V20.377C6.42383 23.02 8.57391 25.1701 11.2168 25.1701H20.7834C23.4263 25.1701 25.5764 23.02 25.5764 20.377V11.625C25.5764 8.98212 23.4263 6.83203 20.7834 6.83203ZM8.11465 11.625C8.11465 9.91473 9.50652 8.52287 11.2168 8.52287H20.7834C22.4937 8.52287 23.8856 9.91473 23.8856 11.625V20.377C23.8856 22.0874 22.4937 23.4792 20.7834 23.4792H11.2168C9.50652 23.4792 8.11465 22.0874 8.11465 20.377V11.625Z" fill="#3D3D3D"/>
<path d="M15.9993 20.4577C18.457 20.4577 20.4576 18.4581 20.4576 15.9993C20.4576 13.5406 18.4581 11.541 15.9993 11.541C13.5405 11.541 11.541 13.5406 11.541 15.9993C11.541 18.4581 13.5405 20.4577 15.9993 20.4577ZM15.9993 13.2329C17.5255 13.2329 18.7668 14.4743 18.7668 16.0004C18.7668 17.5266 17.5255 18.7679 15.9993 18.7679C14.4732 18.7679 13.2318 17.5266 13.2318 16.0004C13.2318 14.4743 14.4732 13.2329 15.9993 13.2329Z" fill="#3D3D3D"/>
<path d="M20.8712 12.2619C21.533 12.2619 22.0724 11.7235 22.0724 11.0606C22.0724 10.3977 21.534 9.85938 20.8712 9.85938C20.2083 9.85938 19.6699 10.3977 19.6699 11.0606C19.6699 11.7235 20.2083 12.2619 20.8712 12.2619Z" fill="#3D3D3D"/>
</svg>
