<svg width="1920" height="837" viewBox="0 0 1920 837" fill="none" xmlns="http://www.w3.org/2000/svg">
<g clip-path="url(#clip0_1098_1133)">
<g opacity="0.6">
<path d="M1588.75 443.375L1665.42 619.923L1744.02 746.311L1825.45 812.381" stroke="#FFFC43" stroke-width="1.32084" stroke-linecap="round" stroke-linejoin="round"/>
<path d="M1306.25 418.037L1384.88 570.687L1463.31 742.411L1543.66 851.068L1626.12 911.483" stroke="#FFFC43" stroke-width="1.32084" stroke-linecap="round" stroke-linejoin="round"/>
<path d="M1235.49 492.061L1314.56 638.768L1393.86 790.939L1474.75 890.139L1557.59 945.57" stroke="#FFFC43" stroke-width="1.32084" stroke-linecap="round" stroke-linejoin="round"/>
<path d="M1375.55 379.986L1453.92 522.477L1531.84 694.903L1611.52 812.698L1693.6 877.937" stroke="#FFFC43" stroke-width="1.32084" stroke-linecap="round" stroke-linejoin="round"/>
<path d="M1011.72 579.922L1090.89 720.048L1170.82 820.75L1251.78 900.845L1333.76 969.279L1417.24 1015.35L1487.98 980.173L1557.59 945.573L1626.12 911.484L1693.6 877.938L1760.02 844.903L1825.45 812.38L1889.89 780.335L1953.37 748.77" stroke="#FFFC43" stroke-width="1.32084" stroke-linecap="round" stroke-linejoin="round"/>
<path d="M1533.35 204.143L1394.43 186.795L1329.83 217.689L1302.45 238.296L1264.02 267.242L1196.96 355.835L1121.82 356.154L1047.35 446.121L974.694 505.482L907.986 533.469L840.319 561.839L771.661 590.625L702.045 619.858L631.375 649.474L559.81 621.87L489.108 588.548L418.118 502.351L348.534 450.754L279.909 405.643L207.833 435.866L135.502 488.261L62.7867 555.289L-11.4297 605.864L-87.0521 646.95L-154.24 613.085L-230.757 656.279L-296.603 629.794L-361.618 603.021L-425.579 579.539L-503.693 608.58" stroke="#FFFC43" stroke-width="1.32084" stroke-linecap="round" stroke-linejoin="round"/>
<path d="M1011.72 579.922L938.367 687.173L864.374 793.37L789.583 886.245L713.896 966.275L636.996 1022.79L558.69 1063.43L480.48 1029.95" stroke="#FFFC43" stroke-width="1.32084" stroke-linecap="round" stroke-linejoin="round"/>
<path d="M1609.74 241.711L1639.03 276.662" stroke="#FFFC43" stroke-width="1.32084" stroke-linecap="round" stroke-linejoin="round"/>
<path d="M1083.89 549.953L1163.31 621.741L1242.83 745.957L1323.41 839.407L1404.81 928.192L1487.97 980.173" stroke="#FFFC43" stroke-width="1.32084" stroke-linecap="round" stroke-linejoin="round"/>
<path d="M1306.25 418.037L1235.49 492.062L1163.32 621.741L1090.89 720.047L1017.82 797.458L943.926 869.598L869.135 952.92L793.353 1015.89L716.389 1060.46L636.997 1022.79L558.691 982.536L481.471 942.633L405.466 908.799L330.77 883.943L252.688 932.409" stroke="#FFFC43" stroke-width="1.32084" stroke-linecap="round" stroke-linejoin="round"/>
<path d="M1889.89 780.333L1808.45 721.516L1729.7 612.731L1652.77 465.353L1575.29 346.376L1536.41 324.076L1496.44 301.137L1417.91 284.3L1340.76 255.131L1264.02 267.239L1188.49 285.45L1185.11 288.964L1180.73 293.565L1123.76 353.181L1120.06 356.152L1113.76 362.638L1040.67 435.257L969.261 452.541L903.415 479.761L836.611 507.365L768.912 535.383L698.401 506.374L629.68 537.332L559.968 565.767L489.106 588.546L417.478 623.881L344.667 653.561L270.77 683.689L195.595 708.034L126.043 683.241L56.9699 646.916L-11.4317 605.862L-79.003 564.808L-144.529 549.92L-220.088 588.738L-296.605 629.792L-374.623 663.817" stroke="#FFFC43" stroke-width="1.32084" stroke-linecap="round" stroke-linejoin="round"/>
<path d="M969.261 452.542L1034.4 377.558L1106.29 326.729" stroke="#FFFC43" stroke-width="1.32084" stroke-linecap="round" stroke-linejoin="round"/>
<path d="M998.304 528.805L1047.34 446.122L1113.77 362.64L1120.38 356.155L1123.77 353.184L1180.73 293.567L1188.49 285.452L1232.42 256.571L1254.08 242.322L1274.88 229.319L1318.84 201.779" stroke="#FFFC43" stroke-width="1.32084" stroke-linecap="round" stroke-linejoin="round"/>
<path d="M327.51 964.454L405.464 908.799L482.045 839.311L533.578 802.889L557.923 785.701L584.6 776.404L621.564 763.561L633.162 759.503L694.215 732.219L708.528 724.424L762.585 700.143L785.46 689.855" stroke="#FFFC43" stroke-width="1.32084" stroke-linecap="round" stroke-linejoin="round"/>
<path d="M2077.53 687.073L1996.13 645.029L1934.5 670.492L1871.94 696.243L1808.46 721.514L1744.02 746.306L1678.43 774.708L1611.53 812.695L1543.67 851.066L1474.76 890.139L1404.82 928.189L1333.77 969.275L1261.66 1011.03L1188.44 1049.91L1114.06 1089.18L1031.25 1053.33L949.652 1007.42L869.141 952.918L789.589 886.241L710.836 810.107L633.425 772.696L557.93 785.699L483.682 793.814L410.264 780.427L338.124 772.504L266.464 743.175L195.602 708.032L119.692 745.316L50.0444 716.402L-18.9328 682.313L-96.0246 716.019L-174.267 749.597" stroke="#FFFC43" stroke-width="1.32084" stroke-linecap="round" stroke-linejoin="round"/>
<path d="M1363.93 320.689L1443.38 362.095L1521.94 477.749L1599.42 647.204L1678.43 774.71L1760.02 844.901" stroke="#FFFC43" stroke-width="1.32084" stroke-linecap="round" stroke-linejoin="round"/>
<path d="M178.984 900.844L257.162 859.055L334.094 813.049L410.26 780.43L485.723 770.334L547.639 779.152" stroke="#FFFC43" stroke-width="1.32084" stroke-linecap="round" stroke-linejoin="round"/>
<path d="M106.304 869.722L184.61 832.821L261.638 792.214L334.097 813.045L407.578 830.105L483.68 793.812L559.047 780.745L596.331 770.074" stroke="#FFFC43" stroke-width="1.32084" stroke-linecap="round" stroke-linejoin="round"/>
<path d="M558.695 1063.43L638.087 1097.42L718.694 1131.92L796.936 1094.9L873.9 1056.14L955.592 1092.15L1031.25 1053.33L1105.78 1008.41L1179.26 957.326L1251.79 900.841L1323.42 839.404L1393.86 790.938L1463.32 742.408L1531.85 694.901L1599.42 647.201L1665.43 619.917L1729.71 612.729L1792.9 606.531L1855.17 596.914L1916.54 584.295L1977.08 569.311L2056.8 619.789L2138.26 656.882" stroke="#FFFC43" stroke-width="1.32084" stroke-linecap="round" stroke-linejoin="round"/>
<path d="M-308.744 692.026L-230.758 656.276L-163.858 685.669L-87.0531 646.947L-18.9389 682.314L56.9709 646.915L131.219 596.245L203.902 526.181L276.522 481.677L348.533 450.751L420.098 444.297L490.13 418.706L559.106 387.556L627.444 382.381L654.856 409.857L696.645 451.741L766.197 481.645L833.033 454.393L898.943 427.492L963.958 400.975L1034.41 377.557L1098.88 312.318L1154.5 296.12L1177.57 281.839L1179.55 280.177L1187.06 276.088L1228.49 255.322L1254.08 242.318L1284.47 232.446L1329.83 217.686L1406.29 222.255L1470.5 205.77L1547.43 232.319L1609.73 241.712L1642.29 276.248L1667.43 304.139L1669.16 306.024L1744.62 381.838L1746.38 383.244L1754.62 388.962L1790.4 414.425L1802.99 423.371L1843.12 448.738L1879.73 471.869L1938.04 477.907L2016.22 507.428L2074.39 490.335L2153.56 516.181" stroke="#FFFC43" stroke-width="1.32084" stroke-linecap="round" stroke-linejoin="round"/>
<path d="M2315.16 568.93L2233.82 542.381L2175.77 566.406L2116.69 593.434L2056.79 619.792L1996.12 645.031L1916.54 584.297L1838.26 513.148L1777.27 505.736L1700.6 397.654L1681.59 367.782L1628.07 283.757L1624.78 278.613L1547.43 232.32L1483.28 252.16L1406.29 222.256L1340.76 255.131L1273.89 318.07L1206.48 363.405L1137.82 444.33L1068.4 537.173L992.2 577.236L969.964 597.524" stroke="#FFFC43" stroke-width="1.32084" stroke-linecap="round" stroke-linejoin="round"/>
<path d="M34.6387 839.056L113.105 806.628L190.356 774.647L261.633 792.219L338.118 772.507L413.07 741.037L485.721 770.334L559.522 738.929L632.237 707.971L690.99 730.974" stroke="#FFFC43" stroke-width="1.32084" stroke-linecap="round" stroke-linejoin="round"/>
<path d="M-439.575 636.022L-361.621 603.02L-284.657 572.125L-220.089 588.739L-154.243 613.083L-79.0038 564.809L-4.65947 518.196L68.5344 467.494L131.729 426.184L140.962 420.146L187.735 394.747L198.469 388.932L212.718 381.201L241.855 367.91L268.756 355.642L283.708 348.805L351.216 384.044L420.096 444.299L489.744 508.101L559.967 565.767L630.51 592.604L700.19 563.787L768.911 535.384L840.316 561.838L912.679 588.643L980.282 559.218L1025.75 516.471" stroke="#FFFC43" stroke-width="1.32084" stroke-linecap="round" stroke-linejoin="round"/>
<path d="M-105.619 778.993L-27.2173 747.46L50.0345 716.406L126.04 683.243L200.225 628.611" stroke="#FFFC43" stroke-width="1.32084" stroke-linecap="round" stroke-linejoin="round"/>
<path d="M1155.04 511.9L1235.49 492.061" stroke="#FFFC43" stroke-width="1.32084" stroke-linecap="round" stroke-linejoin="round"/>
<path d="M1129.67 403.693L1196.96 355.834L1273.89 318.07L1351.78 308.774L1420.69 303.406L1430.92 302.607L1510.4 334.684L1588.74 443.373L1652.77 465.354L1715.45 490.401L1777.27 505.737L1783.85 513.436L1855.16 596.918L1934.49 670.495L2015.89 717.683" stroke="#FFFC43" stroke-width="1.32084" stroke-linecap="round" stroke-linejoin="round"/>
<path d="M-425.576 579.536L-348.58 550.878L-284.651 572.124L-208.773 541.9L-144.525 549.92L-93.8225 521.837L-70.0845 508.674L-30.0533 486.757L3.39713 468.419L29.9782 455.543L76.0801 433.179L118.412 424.681L140.967 420.145L207.836 435.863L276.525 481.677L347.068 567.907L417.482 623.881L488.089 651.516L559.685 679.567L632.24 707.969L703.901 677.49L774.507 647.427L844.091 617.842L912.685 588.641L964.441 589.504" stroke="#FFFC43" stroke-width="1.32084" stroke-linecap="round" stroke-linejoin="round"/>
<path d="M1061.34 474.043L1062.55 473.084L1129.68 403.692L1206.48 363.405L1284.69 329.092L1363.93 320.69L1430.92 302.607L1496.45 301.137L1561.21 287.272L1624.79 278.613L1685.3 331.936L1744.62 381.839L1746.38 383.245L1760.31 396.408L1775.39 410.401L1778.97 413.724L1779.64 414.363L1814.94 447.174L1820.95 452.765L1898.52 512.828L1957.75 512.189L2016.22 507.429L2095.45 537.141L2153.57 516.183L2233.82 542.381" stroke="#FFFC43" stroke-width="1.32084" stroke-linecap="round" stroke-linejoin="round"/>
<path d="M1345.39 1051.07L1272.36 1087.39L1188.43 1049.92L1105.78 1008.41L1024.31 953.783L943.929 869.598L864.377 793.369L785.464 689.855" stroke="#FFFC43" stroke-width="1.32084" stroke-linecap="round" stroke-linejoin="round"/>
<path d="M-348.584 550.878L-272.674 522.667L-208.777 541.9L-133.985 511.389L-112.676 502.476L-60.2482 480.527L-31.782 468.93L12.4667 450.879L76.0764 433.179L100.996 422.732L119.271 415.065L147.961 403.02L175.308 393.819L212.72 381.199L279.908 405.64L351.217 384.043L421.664 370.656L490.13 418.707L559.586 479.792L629.681 537.332L700.191 563.785L771.66 590.622L844.087 617.842L882.298 632.187" stroke="#FFFC43" stroke-width="1.32084" stroke-linecap="round" stroke-linejoin="round"/>
<path d="M1107.06 537.557L1155.04 511.902L1225.39 457.717L1306.26 418.037L1375.55 379.986" stroke="#FFFC43" stroke-width="1.32084" stroke-linecap="round" stroke-linejoin="round"/>
<path d="M1417.25 1015.35L1345.39 1051.07L1261.66 1011.03L1179.26 957.328L1098.08 882.76L1017.82 797.458L938.369 687.171L859.711 643.977L849.935 649.28L849.647 649.44L849.2 649.663L844.088 652.443L782.619 685.766L758.275 698.481L708.531 724.423L694.218 732.218L633.42 772.697L628.02 778.065L557.702 847.265L482.047 839.31L407.575 830.109L330.771 883.942L257.162 859.054L184.606 832.824L113.106 806.627L42.4674 776.819L-27.2126 747.458L-96.0299 716.021L-163.857 685.67L-241.971 720.621" stroke="#FFFC43" stroke-width="1.32084" stroke-linecap="round" stroke-linejoin="round"/>
<path d="M-272.675 522.666L-197.852 494.839L-124.05 467.395L-51.2715 440.335L20.4852 413.626L91.2829 387.3L161.091 361.358L229.972 335.735L297.926 310.464L364.954 285.544L429.267 305.736L494.41 328.068L560.352 346.694L626.805 340.176L694.951 397.971L761.052 378.386L826.164 352.54L890.38 327.045L953.798 297.205L1016.32 275.416L1078.05 249.506L1138.94 227.142L1199.04 204.555L1267.09 226.759L1270.7 227.941" stroke="#FFFC43" stroke-width="1.32084" stroke-linecap="round" stroke-linejoin="round"/>
<path d="M354.224 335.834L362.115 339.892L421.667 370.658L491.155 363.406L523.679 358.645L559.525 353.438L627.448 382.383L694.955 397.974L763.58 429.315L833.037 454.395L903.419 479.762L960.703 500.433" stroke="#FFFC43" stroke-width="1.32084" stroke-linecap="round" stroke-linejoin="round"/>
<path d="M1588.74 443.375L1521.94 477.752L1453.92 522.48L1384.88 570.69L1314.56 638.772L1242.84 745.96L1170.82 820.751L1098.08 882.763L1024.31 953.785L949.645 1007.43L873.895 1056.15L793.352 1015.89L713.896 966.277L635.335 907.811L557.7 847.268" stroke="#FFFC43" stroke-width="1.32084" stroke-linecap="round" stroke-linejoin="round"/>
<path d="M698.404 506.377L766.199 481.648L836.614 507.367L907.987 533.469L963.418 553.213" stroke="#FFFC43" stroke-width="1.32084" stroke-linecap="round" stroke-linejoin="round"/>
<path d="M364.954 285.547L431.119 260.915L495.464 283.566L560.735 259.253L625.878 282.128L690.254 257.592L756.132 280.467L822.841 301.521L890.38 327.048L958.814 350.786L1028.17 353.086L1098.88 312.32L1112.58 306.313L1147.89 290.85L1162.29 284.524L1176.73 281.969" stroke="#FFFC43" stroke-width="1.32084" stroke-linecap="round" stroke-linejoin="round"/>
<path d="M383.167 339.605L424.189 344.94L492.974 354.429L559.523 353.439L573.996 350.563L626.806 340.18L693.228 338.071L758.563 328.774L826.165 352.544L894.631 376.601L963.96 400.978L1028.18 353.087L1091.59 311.65L1146.19 290.692L1162.3 284.525" stroke="#FFFC43" stroke-width="1.32084" stroke-linecap="round" stroke-linejoin="round"/>
<path d="M431.119 260.917L496.422 236.636L560.735 259.256L625.143 235.006L690.254 257.594L753.768 233.345L816.483 209.416L882.265 231.716L948.878 254.24L1016.32 275.421L1084.69 285.581L1146.19 290.693" stroke="#FFFC43" stroke-width="1.32084" stroke-linecap="round" stroke-linejoin="round"/>
<path d="M496.422 236.632L560.862 212.671L625.143 235.003L688.72 211.041L751.467 187.432L816.483 209.412L878.367 185.802L944.117 207.783L1005.14 184.205L1065.39 160.914L1131.81 182.607L1199.03 204.556" stroke="#FFFC43" stroke-width="1.32084" stroke-linecap="round" stroke-linejoin="round"/>
<path d="M560.863 212.673L624.473 189.031L688.721 211.043L753.769 233.344L819.615 255.931L886.291 278.775L953.799 297.209L1022.17 310.084L1091.59 311.65" stroke="#FFFC43" stroke-width="1.32084" stroke-linecap="round" stroke-linejoin="round"/>
<path d="M1466.03 204.653L1533.35 204.143" stroke="#FFFC43" stroke-width="1.32084" stroke-linecap="round" stroke-linejoin="round"/>
<path d="M624.477 189.031L687.256 165.677L751.472 187.434L813.42 164.079L878.372 185.804L939.458 162.514L1005.14 184.207L1071.63 205.996L1131.82 182.609" stroke="#FFFC43" stroke-width="1.32084" stroke-linecap="round" stroke-linejoin="round"/>
<path d="M687.252 165.676L749.232 142.641L813.417 164.078L874.566 141.075L934.917 118.328L999.773 139.51L1065.39 160.915" stroke="#FFFC43" stroke-width="1.32084" stroke-linecap="round" stroke-linejoin="round"/>
<path d="M297.924 310.465L362.108 326.056L427.06 338.995L462.81 347.366" stroke="#FFFC43" stroke-width="1.32084" stroke-linecap="round" stroke-linejoin="round"/>
<path d="M-197.848 494.84L-133.982 511.389L-70.085 508.673L-4.65445 518.194L62.7889 555.286L131.222 596.244L200.232 628.608L274.512 609.247L347.067 567.906L418.121 502.348L489.749 508.098L559.589 479.792L628.31 439.281L696.648 451.741L763.58 429.313L829.554 402.796L894.633 376.598L958.818 350.784L1022.17 310.081L1084.7 285.577L1146.29 268.612L1207.09 248.58L1224.85 253.66" stroke="#FFFC43" stroke-width="1.32084" stroke-linecap="round" stroke-linejoin="round"/>
<path d="M749.23 142.645L810.412 119.865L874.565 141.079L939.452 162.516L999.771 139.514" stroke="#FFFC43" stroke-width="1.32084" stroke-linecap="round" stroke-linejoin="round"/>
<path d="M2315.16 568.928L2257.01 597.81L2198.07 627.139L2138.26 656.883L2077.53 687.074L2015.9 717.681L1953.37 748.767L1871.94 696.243L1792.9 606.532L1721.14 498.929L1715.45 490.399L1712.87 485.958L1638.97 359.186L1637.12 357.461L1561.21 287.27L1483.28 252.158L1417.92 284.299L1351.78 308.771L1284.69 329.091L1215.87 403.722L1146.07 502.699L1107.06 537.555L1083.89 549.951L1043.7 566.628L1011.72 579.919L974.662 599.407L932.906 621.356L889.36 634.838L859.711 643.975L851.277 649.215L850.83 649.471L850.159 649.886L837.603 657.649L785.463 689.853L775.878 705.285L710.831 810.108L635.337 907.807L558.692 982.535L480.482 1029.95L403.454 996.943L327.512 964.452L252.689 932.407L178.984 900.842L106.301 869.724L34.6398 839.053L-35.9664 808.83L-105.614 778.99L-174.272 749.597L-241.971 720.62L-308.743 692.026L-374.621 663.816L-439.572 636.02L-503.693 608.576" stroke="#FFFC43" stroke-width="1.32084" stroke-linecap="round" stroke-linejoin="round"/>
<path d="M-51.2734 440.339L12.4642 450.882L35.0836 441.393L84.1885 420.818L154.987 392.224L198.756 376.122L224.89 366.538L280.513 347.145L293.867 342.48L343.803 330.468L362.109 326.059L429.265 305.739L495.462 283.567L560.637 307.049L626.579 330.531L691.786 305.324L758.559 328.775L822.839 301.522L886.289 278.775L948.876 254.238L1010.66 230.053L1071.62 205.996L1138.94 227.146L1207.08 248.583L1267.08 226.763" stroke="#FFFC43" stroke-width="1.32084" stroke-linecap="round" stroke-linejoin="round"/>
<path d="M810.417 119.86L870.831 97.4004L934.92 118.327" stroke="#FFFC43" stroke-width="1.32084" stroke-linecap="round" stroke-linejoin="round"/>
<path d="M229.972 335.738L293.869 342.479L324.635 341.297" stroke="#FFFC43" stroke-width="1.32084" stroke-linecap="round" stroke-linejoin="round"/>
<path d="M20.4844 413.628L84.1896 420.817L147.959 403.021" stroke="#FFFC43" stroke-width="1.32084" stroke-linecap="round" stroke-linejoin="round"/>
<path d="M161.094 361.359L224.895 366.534L263.137 357.014" stroke="#FFFC43" stroke-width="1.32084" stroke-linecap="round" stroke-linejoin="round"/>
<path d="M91.2852 387.301L154.991 392.221L195.917 383.883" stroke="#FFFC43" stroke-width="1.32084" stroke-linecap="round" stroke-linejoin="round"/>
<path d="M616.9 761.709L559.521 738.93L486.902 710.08L415.305 681.614L341.44 712.189L270.77 683.691L200.228 628.611" stroke="#FFFC43" stroke-width="1.32084" stroke-linecap="round" stroke-linejoin="round"/>
<path d="M757.474 698.164L703.896 677.493L631.373 649.475L559.68 679.57L486.901 710.081L413.068 741.039L341.44 712.19L266.456 743.18L190.355 774.649L119.685 745.32L42.4651 776.821L-35.9688 808.834" stroke="#FFFC43" stroke-width="1.32084" stroke-linecap="round" stroke-linejoin="round"/>
<path d="M1808.61 424.49L1860.91 446.599L1938.04 477.908L1996.22 464.809" stroke="#FFFC43" stroke-width="1.32084" stroke-linecap="round" stroke-linejoin="round"/>
<path d="M1812.99 427.398L1860.91 446.6L1919.06 439.635" stroke="#FFFC43" stroke-width="1.32084" stroke-linecap="round" stroke-linejoin="round"/>
<path d="M1006.26 471.87L1040.67 435.257L1106.29 326.728L1154.5 296.121" stroke="#FFFC43" stroke-width="1.32084" stroke-linecap="round" stroke-linejoin="round"/>
<path d="M1800.72 414.49L1842.89 414.746" stroke="#FFFC43" stroke-width="1.32084" stroke-linecap="round" stroke-linejoin="round"/>
<path d="M1043.7 566.629L1068.4 537.173L1146.07 502.7L1225.39 457.717L1295.42 366.568L1363.92 320.689" stroke="#FFFC43" stroke-width="1.32084" stroke-linecap="round" stroke-linejoin="round"/>
<path d="M522.176 351.074L560.355 346.697L626.584 330.531L693.228 338.071L761.055 378.39L829.553 402.799L898.945 427.495L969.264 452.543" stroke="#FFFC43" stroke-width="1.32084" stroke-linecap="round" stroke-linejoin="round"/>
<path d="M979.231 593.596L992.203 577.238L1045.14 498.229L1061.34 474.044L1062.87 472.511L1120.38 356.154L1126.8 346.314L1170.57 291.426L1177.57 281.842L1179.55 280.18L1187.06 276.091L1224.28 254.015L1224.85 253.663L1244.12 242.385L1270.7 227.945L1318.84 201.779L1394.43 186.795L1466.03 204.654L1470.5 205.773L1533.35 204.143L1573.95 224.111L1609.74 241.715L1640.37 276.507L1656.6 297.657L1685.29 331.937L1700.79 350.627L1761.43 423.981L1772.71 437.08L1838.26 513.149L1898.52 512.83L1977.08 569.315L2036.89 549.986L2095.45 537.143L2175.77 566.408L2257.01 597.813" stroke="#FFFC43" stroke-width="1.32084" stroke-linecap="round" stroke-linejoin="round"/>
<path d="M1763.66 388.867L1767.72 390.209L1842.89 414.745L1919.06 439.633L1996.22 464.809L2074.39 490.336" stroke="#FFFC43" stroke-width="1.32084" stroke-linecap="round" stroke-linejoin="round"/>
<path d="M844.664 651.996L847.891 649.408L849.073 649.664" stroke="#FFFC43" stroke-width="1.32084" stroke-linecap="round" stroke-linejoin="round"/>
<path d="M849.741 649.281L847.888 649.409L774.502 647.428L702.043 619.857L630.51 592.605L559.808 621.87L488.083 651.518L415.305 681.613L344.666 653.562L274.507 609.25L203.901 526.183L135.499 488.261L68.5348 467.494L3.39204 468.421L-60.2496 480.529L-124.051 467.398" stroke="#FFFC43" stroke-width="1.32084" stroke-linecap="round" stroke-linejoin="round"/>
<path d="M1062.27 473.692L1137.83 444.331L1215.88 403.724L1295.43 366.568L1375.55 379.986L1443.38 362.095L1510.41 334.684L1575.3 346.377L1638.97 359.188L1700.6 397.654L1761.43 423.98L1820.95 452.765L1879.73 471.871L1905.55 485.193L1957.75 512.19L2036.89 549.985L2116.7 593.435L2198.07 627.141" stroke="#FFFC43" stroke-width="1.32084" stroke-linecap="round" stroke-linejoin="round"/>
<path d="M1642.89 276.154L1673.09 307.528L1685.03 319.956L1763.66 388.869" stroke="#FFFC43" stroke-width="1.32084" stroke-linecap="round" stroke-linejoin="round"/>
<path d="M698.403 506.376L655.656 465.449L628.308 439.284L559.107 387.559L491.153 363.406L424.188 344.939" stroke="#FFFC43" stroke-width="1.32084" stroke-linecap="round" stroke-linejoin="round"/>
<path d="M283.709 348.804L309.236 344.107L324.635 341.296L354.219 335.833L383.165 339.603L427.062 338.996L494.41 328.069L560.639 307.047L625.878 282.127L691.788 305.322L756.132 280.466L819.614 255.93L882.265 231.713L944.117 207.783L1010.67 230.051L1078.05 249.508L1146.29 268.613L1186.64 276.025" stroke="#FFFC43" stroke-width="1.32084" stroke-linecap="round" stroke-linejoin="round"/>
</g>
<rect y="-87" width="1919" height="713" fill="url(#paint0_linear_1098_1133)"/>
<rect x="1920" y="837" width="1920" height="260" transform="rotate(-180 1920 837)" fill="url(#paint1_linear_1098_1133)"/>
</g>
<defs>
<linearGradient id="paint0_linear_1098_1133" x1="959.5" y1="-87" x2="959.5" y2="626" gradientUnits="userSpaceOnUse">
<stop offset="0.374" stop-color="#252525"/>
<stop offset="1" stop-color="#252525" stop-opacity="0"/>
</linearGradient>
<linearGradient id="paint1_linear_1098_1133" x1="2880" y1="837" x2="2880" y2="1097" gradientUnits="userSpaceOnUse">
<stop stop-color="#252525"/>
<stop offset="1" stop-color="#252525" stop-opacity="0"/>
</linearGradient>
<clipPath id="clip0_1098_1133">
<rect width="1920" height="837" fill="white"/>
</clipPath>
</defs>
</svg>
