<svg width="225" height="60" viewBox="0 0 225 60" fill="none" xmlns="http://www.w3.org/2000/svg">
<path d="M88.5714 49.6554L87.1058 38.4204L89.0425 34.7454L87.1058 29.8629L89.723 9.23039H102.181L98.9879 33.6429L101.029 49.6554H88.5714ZM90.9793 34.6404C90.5605 37.8254 89.6358 40.6254 88.205 43.0404C86.8092 45.4204 84.9946 47.2754 82.7612 48.6054C80.5627 49.9004 78.0328 50.5479 75.1713 50.5479C72.2749 50.5479 69.71 49.8829 67.4766 48.5529C65.2433 47.2229 63.4985 45.3679 62.2422 42.9879C61.0208 40.5729 60.4102 37.7904 60.4102 34.6404C60.4102 31.4204 61.0208 28.6204 62.2422 26.2404C63.4985 23.8254 65.2433 21.9704 67.4766 20.6754C69.71 19.3454 72.2749 18.6804 75.1713 18.6804C78.0328 18.6804 80.5627 19.3279 82.7612 20.6229C84.9946 21.9179 86.8266 23.7729 88.2573 26.1879C89.6881 28.5679 90.5954 31.3854 90.9793 34.6404ZM72.5017 34.6404C72.5017 35.9704 72.7634 37.1429 73.2869 38.1579C73.8452 39.1729 74.6129 39.9779 75.59 40.5729C76.5671 41.1679 77.6838 41.4654 78.9401 41.4654C80.2312 41.4654 81.47 41.1679 82.6565 40.5729C83.843 39.9779 84.8899 39.1729 85.7972 38.1579C86.7045 37.1429 87.3675 35.9704 87.7863 34.6404C87.3675 33.3104 86.7045 32.1379 85.7972 31.1229C84.8899 30.0729 83.843 29.2504 82.6565 28.6554C81.47 28.0604 80.2312 27.7629 78.9401 27.7629C77.6838 27.7629 76.5671 28.0604 75.59 28.6554C74.6129 29.2504 73.8452 30.0729 73.2869 31.1229C72.7634 32.1379 72.5017 33.3104 72.5017 34.6404Z" fill="#FFFC43"/>
<path d="M105.625 18.9954L111.645 20.2554L117.612 18.9954V49.6554H105.625V18.9954ZM111.645 17.0004C109.621 17.0004 107.981 16.4929 106.724 15.4779C105.468 14.4629 104.84 13.0979 104.84 11.3829C104.84 9.63289 105.468 8.25039 106.724 7.23539C107.981 6.22039 109.621 5.71289 111.645 5.71289C113.738 5.71289 115.396 6.22039 116.617 7.23539C117.874 8.25039 118.502 9.63289 118.502 11.3829C118.502 13.0979 117.874 14.4629 116.617 15.4779C115.396 16.4929 113.738 17.0004 111.645 17.0004Z" fill="#FFFC43"/>
<path d="M121.694 19.5729H133.681L135.722 32.0154V49.6554H123.735V30.1779L121.694 19.5729ZM145.825 18.6804C148.616 18.6804 150.989 19.2579 152.944 20.4129C154.898 21.5679 156.381 23.2129 157.393 25.3479C158.44 27.4479 158.963 29.9154 158.963 32.7504V49.6554H146.976V34.4829C146.976 32.5229 146.505 31.0179 145.563 29.9679C144.656 28.9179 143.347 28.3929 141.637 28.3929C140.416 28.3929 139.351 28.6729 138.444 29.2329C137.572 29.7929 136.891 30.5804 136.403 31.5954C135.949 32.6104 135.722 33.8354 135.722 35.2704L132.11 33.3804C132.564 30.1254 133.437 27.4129 134.728 25.2429C136.054 23.0729 137.676 21.4454 139.596 20.3604C141.515 19.2404 143.591 18.6804 145.825 18.6804ZM169.013 18.6804C171.805 18.6804 174.178 19.2579 176.132 20.4129C178.121 21.5679 179.622 23.2129 180.634 25.3479C181.681 27.4479 182.204 29.9154 182.204 32.7504V49.6554H170.217V34.4829C170.217 32.5229 169.746 31.0179 168.804 29.9679C167.897 28.9179 166.588 28.3929 164.878 28.3929C163.657 28.3929 162.592 28.6729 161.685 29.2329C160.813 29.7929 160.132 30.5804 159.644 31.5954C159.19 32.6104 158.963 33.8354 158.963 35.2704L155.351 33.3804C155.805 30.1254 156.677 27.4129 157.969 25.2429C159.295 23.0729 160.9 21.4454 162.784 20.3604C164.704 19.2404 166.78 18.6804 169.013 18.6804Z" fill="#FFFC43"/>
<path d="M205.476 50.5479C201.602 50.5479 198.2 49.8829 195.268 48.5529C192.337 47.2229 190.051 45.3679 188.411 42.9879C186.771 40.5729 185.951 37.7904 185.951 34.6404C185.951 31.4204 186.771 28.6204 188.411 26.2404C190.051 23.8254 192.337 21.9704 195.268 20.6754C198.2 19.3454 201.62 18.6804 205.528 18.6804C209.401 18.6804 212.804 19.3454 215.735 20.6754C218.666 21.9704 220.935 23.8254 222.54 26.2404C224.18 28.6204 225 31.4204 225 34.6404C225 37.7904 224.18 40.5729 222.54 42.9879C220.935 45.3679 218.666 47.2229 215.735 48.5529C212.804 49.8829 209.384 50.5479 205.476 50.5479ZM205.528 41.7279C207.098 41.7279 208.424 41.4479 209.506 40.8879C210.623 40.3279 211.46 39.5229 212.019 38.4729C212.612 37.3879 212.908 36.1104 212.908 34.6404C212.908 33.1354 212.612 31.8579 212.019 30.8079C211.46 29.7229 210.623 28.9004 209.506 28.3404C208.424 27.7804 207.098 27.5004 205.528 27.5004C203.958 27.5004 202.614 27.7804 201.497 28.3404C200.381 28.9004 199.526 29.7229 198.933 30.8079C198.374 31.8579 198.095 33.1179 198.095 34.5879C198.095 36.0929 198.374 37.3879 198.933 38.4729C199.526 39.5229 200.381 40.3279 201.497 40.8879C202.614 41.4479 203.958 41.7279 205.528 41.7279Z" fill="#FFFC43"/>
<path d="M39.8814 4V46C39.8814 48.21 38.0967 50 35.8933 50H33.8992C31.6977 50 29.9111 48.21 29.9111 46V34C29.9111 31.792 28.1264 30 25.9229 30H23.9288C23.883 30 23.8371 30 23.7913 29.996H16.0902C16.0443 30 15.9984 30 15.9526 30H13.9585C11.757 30 9.97035 31.792 9.97035 34V46C9.97035 48.21 11.757 50 13.9585 50H25.9229C28.1264 50 29.9111 51.792 29.9111 54V56C29.9111 58.21 28.1264 60 25.9229 60H13.9585C11.757 60 9.97035 58.21 9.97035 56V54C9.97035 51.792 8.18566 50 5.98221 50H3.98814C1.78669 50 0 48.21 0 46V34C0 31.792 1.78669 30 3.98814 30H5.98221C8.18566 30 9.97035 28.21 9.97035 26V24C9.97035 21.792 11.757 20 13.9585 20H15.1948V19.996H25.1652V20H25.9229C28.1264 20 29.9111 21.79 29.9111 24V4C29.9111 1.792 31.6977 0 33.8992 0H35.8933C38.0967 0 39.8814 1.792 39.8814 4Z" fill="#FFFC43"/>
</svg>
