<svg width="458" height="458" viewBox="0 0 458 458" fill="none" xmlns="http://www.w3.org/2000/svg">
<circle cx="229" cy="229" r="229" fill="#FFFC43"/>
<path d="M320.422 99.0828V303.102C320.422 313.838 311.727 322.533 300.991 322.533H291.276C280.55 322.533 271.846 313.838 271.846 303.102V244.811C271.846 234.086 263.15 225.381 252.415 225.381H242.7C242.476 225.381 242.253 225.381 242.029 225.361H204.509C204.286 225.381 204.062 225.381 203.839 225.381H194.124C183.398 225.381 174.693 234.086 174.693 244.811V303.102C174.693 313.838 183.398 322.533 194.124 322.533H252.415C263.15 322.533 271.846 331.238 271.846 341.963V351.679C271.846 362.414 263.15 371.109 252.415 371.109H194.124C183.398 371.109 174.693 362.414 174.693 351.679V341.963C174.693 331.238 165.998 322.533 155.263 322.533H145.548C134.822 322.533 126.117 313.838 126.117 303.102V244.811C126.117 234.086 134.822 225.381 145.548 225.381H155.263C165.998 225.381 174.693 216.686 174.693 205.95V196.235C174.693 185.509 183.398 176.805 194.124 176.805H200.147V176.785H248.723V176.805H252.415C263.15 176.805 271.846 185.5 271.846 196.235V99.0828C271.846 88.3572 280.55 79.6523 291.276 79.6523H300.991C311.727 79.6523 320.422 88.3572 320.422 99.0828Z" fill="#252525"/>
</svg>
