<svg width="1338" height="813" viewBox="0 0 1338 813" fill="none" xmlns="http://www.w3.org/2000/svg">
<path d="M120.77 20C120.77 8.95433 129.724 0 140.77 0H1197.23C1208.28 0 1217.23 8.95431 1217.23 20V759.012H120.77L120.77 20Z" fill="black"/>
<path d="M1269.67 809.824L1268.83 810.659C1267.33 812.158 1265.3 813 1263.18 813H1204.65C1202.53 813 1200.5 812.158 1199 810.659L1198.16 809.824H1269.67Z" fill="#444444"/>
<path d="M1269.67 809.824L1268.83 810.659C1267.33 812.158 1265.3 813 1263.18 813H1204.65C1202.53 813 1200.5 812.158 1199 810.659L1198.16 809.824H1269.67Z" fill="url(#paint0_linear_1353_4391)" fill-opacity="0.5"/>
<path d="M1269.67 809.824L1268.83 810.659C1267.33 812.158 1265.3 813 1263.18 813H1204.65C1202.53 813 1200.5 812.158 1199 810.659L1198.16 809.824H1269.67Z" fill="url(#paint1_linear_1353_4391)" fill-opacity="0.8"/>
<path d="M1193.39 803.473H1274.44L1269.67 809.824H1198.16L1193.39 803.473Z" fill="#C4C4C4"/>
<path d="M1193.39 803.473H1274.44L1269.67 809.824H1198.16L1193.39 803.473Z" fill="url(#paint2_linear_1353_4391)" fill-opacity="0.8"/>
<path d="M139.838 809.824L139.003 810.659C137.503 812.158 135.469 813 133.348 813H74.8202C72.6995 813 70.6656 812.158 69.1655 810.659L68.3301 809.824H139.838Z" fill="#444444"/>
<path d="M139.838 809.824L139.003 810.659C137.503 812.158 135.469 813 133.348 813H74.8202C72.6995 813 70.6656 812.158 69.1655 810.659L68.3301 809.824H139.838Z" fill="url(#paint3_linear_1353_4391)" fill-opacity="0.5"/>
<path d="M139.838 809.824L139.003 810.659C137.503 812.158 135.469 813 133.348 813H74.8202C72.6995 813 70.6656 812.158 69.1655 810.659L68.3301 809.824H139.838Z" fill="url(#paint4_linear_1353_4391)" fill-opacity="0.8"/>
<path d="M63.5625 803.473H144.605L139.838 809.824H68.3297L63.5625 803.473Z" fill="#C4C4C4"/>
<path d="M63.5625 803.473H144.605L139.838 809.824H68.3297L63.5625 803.473Z" fill="url(#paint5_linear_1353_4391)" fill-opacity="0.8"/>
<path fill-rule="evenodd" clip-rule="evenodd" d="M0 760.143C0 759.518 0.491296 759.012 1.09734 759.012H1336.9C1337.51 759.012 1338 759.518 1338 760.143V781.634C1338 789.204 1334.03 796.327 1328.47 800.297C1324.56 802.286 1319.52 803.473 1314.16 803.473H23.8361C18.4788 803.473 13.4385 802.286 9.53444 800.297C3.97268 796.327 0 789.204 0 781.634V760.143Z" fill="#777777"/>
<path d="M23.8358 803.473H1314.16C1319.52 803.473 1324.56 802.286 1328.47 800.297H9.53418C13.4382 802.286 18.4785 803.473 23.8358 803.473Z" fill="url(#paint6_linear_1353_4391)" fill-opacity="0.4"/>
<path d="M1.09734 759.012C0.491296 759.012 0 759.518 0 760.143V781.634C0 789.204 3.97268 796.327 9.53444 800.297H1328.47C1334.03 796.327 1338 789.204 1338 781.634V760.143C1338 759.518 1337.51 759.012 1336.9 759.012H1.09734Z" fill="url(#paint7_radial_1353_4391)" fill-opacity="0.6"/>
<path d="M1.09734 759.012C0.491296 759.012 0 759.518 0 760.143V781.634C0 789.204 3.97268 796.327 9.53444 800.297H1328.47C1334.03 796.327 1338 789.204 1338 781.634V760.143C1338 759.518 1337.51 759.012 1336.9 759.012H1.09734Z" fill="url(#paint8_linear_1353_4391)" fill-opacity="0.5"/>
<g style="mix-blend-mode:hard-light" opacity="0.8">
<path d="M580.012 759.012H785.002C785.002 768.274 776.174 771.715 769.229 771.715H595.785C588.84 771.715 580.012 768.274 580.012 759.012Z" fill="#E1E2E3"/>
<path d="M580.012 759.012H785.002C785.002 768.274 776.174 771.715 769.229 771.715H595.785C588.84 771.715 580.012 768.274 580.012 759.012Z" fill="url(#paint9_linear_1353_4391)"/>
</g>
<g style="mix-blend-mode:multiply">
<path d="M580.012 759.012H785.002C785.002 768.274 776.174 771.715 769.229 771.715H595.785C588.84 771.715 580.012 768.274 580.012 759.012Z" fill="#E1E2E3"/>
<path d="M580.012 759.012H785.002C785.002 768.274 776.174 771.715 769.229 771.715H595.785C588.84 771.715 580.012 768.274 580.012 759.012Z" fill="url(#paint10_linear_1353_4391)"/>
</g>
<defs>
<linearGradient id="paint0_linear_1353_4391" x1="1233.92" y1="809.824" x2="1233.92" y2="813" gradientUnits="userSpaceOnUse">
<stop offset="0.130273"/>
<stop offset="0.375191" stop-opacity="0"/>
</linearGradient>
<linearGradient id="paint1_linear_1353_4391" x1="1198.16" y1="813" x2="1269.67" y2="813" gradientUnits="userSpaceOnUse">
<stop offset="0.035499" stop-opacity="0"/>
<stop offset="0.183503"/>
<stop offset="0.398916" stop-opacity="0"/>
<stop offset="0.633378" stop-opacity="0"/>
<stop offset="0.837067"/>
<stop offset="0.970418" stop-opacity="0"/>
</linearGradient>
<linearGradient id="paint2_linear_1353_4391" x1="1193.39" y1="809.824" x2="1272.85" y2="809.824" gradientUnits="userSpaceOnUse">
<stop stop-opacity="0"/>
<stop offset="0.186299"/>
<stop offset="0.456756" stop-opacity="0"/>
<stop offset="0.546908" stop-opacity="0"/>
<stop offset="0.835968"/>
<stop offset="1" stop-opacity="0"/>
</linearGradient>
<linearGradient id="paint3_linear_1353_4391" x1="104.084" y1="809.824" x2="104.084" y2="813" gradientUnits="userSpaceOnUse">
<stop offset="0.130273"/>
<stop offset="0.375191" stop-opacity="0"/>
</linearGradient>
<linearGradient id="paint4_linear_1353_4391" x1="68.3301" y1="813" x2="139.838" y2="813" gradientUnits="userSpaceOnUse">
<stop offset="0.035499" stop-opacity="0"/>
<stop offset="0.183503"/>
<stop offset="0.398916" stop-opacity="0"/>
<stop offset="0.633378" stop-opacity="0"/>
<stop offset="0.837067"/>
<stop offset="0.970418" stop-opacity="0"/>
</linearGradient>
<linearGradient id="paint5_linear_1353_4391" x1="63.5625" y1="809.824" x2="143.016" y2="809.824" gradientUnits="userSpaceOnUse">
<stop stop-opacity="0"/>
<stop offset="0.186299"/>
<stop offset="0.456756" stop-opacity="0"/>
<stop offset="0.546908" stop-opacity="0"/>
<stop offset="0.835968"/>
<stop offset="1" stop-opacity="0"/>
</linearGradient>
<linearGradient id="paint6_linear_1353_4391" x1="1249.01" y1="800.297" x2="1249.01" y2="803.473" gradientUnits="userSpaceOnUse">
<stop offset="0.444236" stop-opacity="0"/>
<stop offset="0.867408"/>
</linearGradient>
<radialGradient id="paint7_radial_1353_4391" cx="0" cy="0" r="1" gradientUnits="userSpaceOnUse" gradientTransform="translate(669 800.297) rotate(-180) scale(669 21649.2)">
<stop stop-color="white" stop-opacity="0.5"/>
<stop offset="0.364583" stop-color="white" stop-opacity="0"/>
<stop offset="0.703125" stop-color="white" stop-opacity="0"/>
<stop offset="0.96875" stop-color="white"/>
<stop offset="1" stop-color="white" stop-opacity="0"/>
</radialGradient>
<linearGradient id="paint8_linear_1353_4391" x1="1253.78" y1="759.012" x2="1253.78" y2="800.297" gradientUnits="userSpaceOnUse">
<stop offset="0.102925" stop-opacity="0"/>
<stop offset="0.6646"/>
<stop offset="0.772607"/>
<stop offset="0.90268" stop-opacity="0.58"/>
<stop offset="1" stop-opacity="0"/>
</linearGradient>
<linearGradient id="paint9_linear_1353_4391" x1="785.002" y1="771.715" x2="580.012" y2="771.715" gradientUnits="userSpaceOnUse">
<stop stop-color="#8A8A8A"/>
<stop offset="0.203125" stop-color="#AAAAAA" stop-opacity="0"/>
<stop offset="0.8125" stop-color="#AAAAAA" stop-opacity="0"/>
<stop offset="1" stop-color="#8A8A8A"/>
</linearGradient>
<linearGradient id="paint10_linear_1353_4391" x1="785.002" y1="771.715" x2="580.012" y2="771.715" gradientUnits="userSpaceOnUse">
<stop stop-color="#8A8A8A"/>
<stop offset="0.203125" stop-color="#AAAAAA" stop-opacity="0"/>
<stop offset="0.8125" stop-color="#AAAAAA" stop-opacity="0"/>
<stop offset="1" stop-color="#8A8A8A"/>
</linearGradient>
</defs>
</svg>
