<svg width="1920" height="771" viewBox="0 0 1920 771" fill="none" xmlns="http://www.w3.org/2000/svg">
<path opacity="0.8" d="M1919.98 860.976H1600L1521.55 808.271L1449.13 759.621L1382.06 714.563L1319.77 672.71L1261.77 633.746L1207.63 597.38L1156.96 563.344L1109.46 531.445L1064.85 501.463M1920 860.976V1.0243M0.121553 717.646V144.329M0.121553 717.646V860.976H320.024L398.329 808.271L470.628 759.621L537.58 714.563L599.766 672.71L657.674 633.746L711.716 597.38L762.282 563.344L809.688 531.445L854.225 501.463H1117.36L1184.26 531.445M0.121553 717.646L117.639 682.494L226.137 650.036L326.612 619.981L419.916 592.088L506.802 566.112L587.902 541.859L663.776 519.16L734.908 497.894L801.738 477.914V360.051L734.908 330.118M0.121553 1H1919.98M1600.02 861H320.097M117.615 53.6802V808.295H1802.31L1693.69 759.645M1693.69 759.645H226.113V102.258M1693.69 759.645V102.258L1802.31 53.6559H117.639L0.121553 1.0243V144.354L117.639 179.433L226.137 211.818L326.612 241.8L419.916 269.645L506.802 295.572L587.902 319.776L663.776 342.426L734.908 363.668L801.738 383.624M226.113 102.258L117.615 53.6559M226.113 102.258H1449.1L1521.53 53.6559L1599.98 1.0243M1593.12 714.587H326.588V147.267M1499.72 672.735H419.892V189.047M1919.98 1.0486L1802.34 53.6802V179.458L1693.72 211.842L1593.14 241.824L1499.74 269.669L1412.76 295.597L1331.56 319.8L1255.59 342.451L1184.36 363.693L1117.46 383.648V477.939L1184.36 497.918L1255.59 519.185L1331.56 541.884L1412.76 566.136L1499.74 592.112L1593.14 620.006L1693.72 650.06L1802.34 682.518V808.295L1919.98 861M1412.71 633.746H506.754V227.938M1693.69 102.233L1593.12 147.218M1593.12 147.218V714.539L1693.69 759.596M1593.12 147.218H326.588L226.113 102.233M1919.98 144.329L1802.34 179.409V682.494L1919.98 717.646M320.097 1.0243L398.402 53.6559L470.701 102.258L537.652 147.242L599.839 189.022L657.747 227.938L711.789 264.256L762.355 298.243L809.761 330.094L854.298 360.027H1064.8L1109.41 330.094L1156.92 298.243L1207.58 264.256L1261.72 227.938L1319.72 189.022L1382.01 147.242L1449.08 102.258H1693.67M1593.1 147.242L1499.69 189.022V672.71L1593.1 714.563M326.54 147.242L419.843 189.022H1499.67M1279.98 860.976L1240.71 808.271L1204.47 759.621L1170.89 714.563L1139.73 672.71L1110.7 633.746L1083.59 597.38L1058.24 563.344L1034.46 531.445L1012.12 501.463M640 860.976L679.116 808.271L715.241 759.621L748.693 714.563L779.761 672.71L808.691 633.746L835.7 597.38L860.959 563.344L884.637 531.445L906.881 501.463M587.854 264.256V597.38H1331.47L1255.49 563.344M801.69 454.318L734.86 464.319L663.727 474.977L587.854 486.338L506.754 498.477L419.868 511.489L326.564 525.448L226.088 540.5L117.59 556.741L0.0729316 574.341M801.641 407.196L734.811 397.243L663.678 386.634L587.805 375.321L506.705 363.232L419.819 350.268L326.515 336.357L226.04 321.379L117.542 305.21L0.0243105 287.682M1499.62 189.022L1412.64 227.938V633.746L1499.62 672.71M419.795 189.022L506.681 227.938H1412.66M959.976 860.976L959.903 808.271L959.83 759.621L959.781 714.563L959.733 672.71L959.684 633.746L959.635 597.38L959.587 563.344L959.538 531.445L959.489 501.463M801.617 430.745H734.787L663.654 430.794H587.781L506.681 430.842H419.795L326.491 430.89H226.015L117.517 430.963L0 431.012M1412.61 227.938L1331.42 264.256M1331.42 264.256V597.38L1412.61 633.746M1331.42 264.256H587.732M506.632 227.938L587.732 264.256M587.732 264.256L663.606 298.243H1255.47L1331.44 264.256M1255.49 563.344V298.243L1184.26 330.094H734.763L663.63 298.243V563.344H1255.49ZM734.86 531.445L801.69 501.463V477.89M1184.41 330.118V531.469M1184.41 531.469L1255.64 563.368M1184.41 531.469H734.908L663.776 563.368L587.902 597.404L506.802 633.77L419.916 672.735L326.612 714.587L226.137 759.645L117.639 808.295L0.121553 861M734.86 330.118V531.469M1919.95 574.341L1802.31 556.741L1693.69 540.5L1593.12 525.448L1499.72 511.489L1412.74 498.477L1331.54 486.338L1255.57 474.977L1184.34 464.319L1117.44 454.318M1919.95 287.658L1802.31 305.186L1693.69 321.354L1593.12 336.333L1499.72 350.243L1412.74 363.207L1331.54 375.297L1255.57 386.61L1184.34 397.219L1117.44 407.172M1012.19 360.027L1034.54 330.094L1058.31 298.243L1083.67 264.256L1110.77 227.938L1139.8 189.022L1170.97 147.242L1204.54 102.258L1240.79 53.6559L1280.05 1.0243M906.979 360.027L884.734 330.094L861.056 298.243L835.797 264.256L808.788 227.938L779.859 189.022L748.79 147.242L715.338 102.258L679.213 53.6559L640.097 1.0243M1920 431.012L1802.36 430.963H1693.74L1593.17 430.89H1499.77L1412.78 430.842H1331.59L1255.62 430.794H1184.39L1117.48 430.745M959.611 360.027L959.66 330.094L959.708 298.243L959.757 264.256L959.806 227.938L959.854 189.022L959.903 147.242L959.951 102.258L960.024 53.6559L960.097 1.0243M1117.51 360.027V383.599M801.762 360.027H854.395M1064.9 360.027H1117.53L1184.44 330.094M1117.53 477.89V501.463M854.395 501.463H801.762" stroke="#F6F6F6" stroke-opacity="0.6" stroke-width="1.5" stroke-linecap="round" stroke-linejoin="round"/>
</svg>
