<svg width="570" height="34" viewBox="0 0 570 34" fill="none" xmlns="http://www.w3.org/2000/svg">
<path d="M1.5 17H248.5" stroke="#F6F6F6" stroke-width="2" stroke-linecap="round"/>
<path d="M279.668 26.336C277.633 26.336 275.879 25.972 274.404 25.244C272.929 24.516 271.8 23.4147 271.016 21.94C270.232 20.4653 269.84 18.6173 269.84 16.396C269.84 14.1373 270.232 12.28 271.016 10.824C271.8 9.34933 272.929 8.25733 274.404 7.548C275.879 6.82 277.633 6.456 279.668 6.456C281.74 6.456 283.504 6.82 284.96 7.548C286.435 8.25733 287.564 9.34933 288.348 10.824C289.132 12.28 289.524 14.1373 289.524 16.396C289.524 18.6173 289.132 20.4653 288.348 21.94C287.564 23.4147 286.435 24.516 284.96 25.244C283.504 25.972 281.74 26.336 279.668 26.336ZM279.668 22.92C280.583 22.92 281.385 22.7893 282.076 22.528C282.767 22.2667 283.345 21.8747 283.812 21.352C284.279 20.8293 284.633 20.1947 284.876 19.448C285.119 18.6827 285.24 17.8147 285.24 16.844V15.976C285.24 14.9867 285.119 14.1093 284.876 13.344C284.633 12.5787 284.279 11.944 283.812 11.44C283.345 10.9173 282.767 10.5253 282.076 10.264C281.385 10.0027 280.583 9.872 279.668 9.872C278.772 9.872 277.979 10.0027 277.288 10.264C276.597 10.5253 276.019 10.9173 275.552 11.44C275.085 11.944 274.731 12.5787 274.488 13.344C274.264 14.1093 274.152 14.9867 274.152 15.976V16.844C274.152 17.8147 274.264 18.6827 274.488 19.448C274.731 20.1947 275.085 20.8293 275.552 21.352C276.019 21.8747 276.597 22.2667 277.288 22.528C277.979 22.7893 278.772 22.92 279.668 22.92ZM292.575 26V11.272H295.795L296.103 13.568H296.299C296.486 13.0827 296.729 12.644 297.027 12.252C297.326 11.8413 297.699 11.5147 298.147 11.272C298.595 11.0293 299.118 10.908 299.715 10.908C300.033 10.908 300.322 10.9453 300.583 11.02C300.845 11.076 301.041 11.132 301.171 11.188V14.716H299.967C299.389 14.716 298.875 14.8 298.427 14.968C297.998 15.1173 297.634 15.36 297.335 15.696C297.037 16.032 296.813 16.4427 296.663 16.928C296.533 17.4133 296.467 17.9827 296.467 18.636V26H292.575Z" fill="#F6F6F6"/>
<path d="M321.5 17H568.5" stroke="#F6F6F6" stroke-width="2" stroke-linecap="round"/>
</svg>
