<svg width="129" height="128" viewBox="0 0 129 128" fill="none" xmlns="http://www.w3.org/2000/svg">
<g id="task_alt">
<mask id="mask0_1603_6891" style="mask-type:alpha" maskUnits="userSpaceOnUse" x="0" y="0" width="129" height="128">
<rect id="Bounding box" x="0.5" width="128" height="128" fill="#D9D9D9"/>
</mask>
<g mask="url(#mask0_1603_6891)">
<path id="task_alt_2" d="M64.5013 117.331C57.1235 117.331 50.1902 115.931 43.7013 113.131C37.2124 110.331 31.568 106.531 26.768 101.731C21.968 96.9307 18.168 91.2863 15.368 84.7974C12.568 78.3085 11.168 71.3752 11.168 63.9974C11.168 56.6196 12.568 49.6863 15.368 43.1974C18.168 36.7085 21.968 31.0641 26.768 26.2641C31.568 21.4641 37.2124 17.6641 43.7013 14.8641C50.1902 12.0641 57.1235 10.6641 64.5013 10.6641C70.2791 10.6641 75.7457 11.5085 80.9013 13.1974C86.0569 14.8863 90.8124 17.2418 95.168 20.2641L87.4346 28.1307C84.0569 25.9974 80.4569 24.3307 76.6346 23.1307C72.8124 21.9307 68.768 21.3307 64.5013 21.3307C52.6791 21.3307 42.6124 25.4863 34.3013 33.7974C25.9902 42.1085 21.8346 52.1752 21.8346 63.9974C21.8346 75.8196 25.9902 85.8863 34.3013 94.1974C42.6124 102.509 52.6791 106.664 64.5013 106.664C76.3235 106.664 86.3902 102.509 94.7013 94.1974C103.012 85.8863 107.168 75.8196 107.168 63.9974C107.168 62.3974 107.079 60.7974 106.901 59.1974C106.724 57.5974 106.457 56.0418 106.101 54.5307L114.768 45.8641C115.746 48.7085 116.501 51.6418 117.035 54.6641C117.568 57.6863 117.835 60.7974 117.835 63.9974C117.835 71.3752 116.435 78.3085 113.635 84.7974C110.835 91.2863 107.035 96.9307 102.235 101.731C97.4346 106.531 91.7902 110.331 85.3013 113.131C78.8124 115.931 71.8791 117.331 64.5013 117.331ZM57.0346 88.5307L34.368 65.8641L41.8346 58.3974L57.0346 73.5974L110.368 20.1307L117.835 27.5974L57.0346 88.5307Z" fill="#AEFFD8"/>
</g>
</g>
</svg>
