<svg width="1964" height="880" viewBox="0 0 1964 880" fill="none" xmlns="http://www.w3.org/2000/svg">
<g clip-path="url(#clip0_1291_4257)">
<g opacity="0.8">
<path d="M1645.75 445.375L1722.42 621.923L1801.02 748.311L1882.45 814.381" stroke="#FFFC43" stroke-width="1.32084" stroke-linecap="round" stroke-linejoin="round"/>
<path d="M1363.25 420.037L1441.88 572.687L1520.31 744.411L1600.66 853.068L1683.12 913.483" stroke="#FFFC43" stroke-width="1.32084" stroke-linecap="round" stroke-linejoin="round"/>
<path d="M1292.49 494.061L1371.56 640.768L1450.86 792.939L1531.75 892.139L1614.59 947.57" stroke="#FFFC43" stroke-width="1.32084" stroke-linecap="round" stroke-linejoin="round"/>
<path d="M1432.55 381.986L1510.92 524.477L1588.85 696.903L1668.53 814.698L1750.6 879.937" stroke="#FFFC43" stroke-width="1.32084" stroke-linecap="round" stroke-linejoin="round"/>
<path d="M1068.72 581.922L1147.89 722.048L1227.82 822.75L1308.78 902.845L1390.76 971.279L1474.24 1017.35L1544.98 982.173L1614.59 947.573L1683.12 913.484L1750.6 879.938L1817.02 846.903L1882.45 814.38L1946.89 782.335L2010.37 750.77" stroke="#FFFC43" stroke-width="1.32084" stroke-linecap="round" stroke-linejoin="round"/>
<path d="M1590.35 206.143L1451.43 188.795L1386.83 219.689L1359.45 240.296L1321.02 269.242L1253.96 357.835L1178.82 358.154L1104.35 448.121L1031.69 507.482L964.986 535.469L897.319 563.839L828.661 592.625L759.045 621.858L688.375 651.474L616.81 623.87L546.108 590.548L475.118 504.351L405.534 452.754L336.909 407.643L264.833 437.866L192.502 490.261L119.787 557.289L45.5703 607.864L-30.0521 648.95L-97.24 615.085L-173.757 658.279L-239.603 631.794L-304.618 605.021L-368.579 581.539L-446.693 610.58" stroke="#FFFC43" stroke-width="1.32084" stroke-linecap="round" stroke-linejoin="round"/>
<path d="M1068.72 581.922L995.367 689.173L921.374 795.37L846.583 888.245L770.896 968.275L693.996 1024.79L615.69 1065.43L537.48 1031.95" stroke="#FFFC43" stroke-width="1.32084" stroke-linecap="round" stroke-linejoin="round"/>
<path d="M1666.74 243.711L1696.03 278.662" stroke="#FFFC43" stroke-width="1.32084" stroke-linecap="round" stroke-linejoin="round"/>
<path d="M1140.89 551.953L1220.31 623.741L1299.83 747.957L1380.41 841.407L1461.81 930.192L1544.97 982.173" stroke="#FFFC43" stroke-width="1.32084" stroke-linecap="round" stroke-linejoin="round"/>
<path d="M1363.25 420.037L1292.49 494.062L1220.32 623.741L1147.89 722.047L1074.82 799.458L1000.93 871.598L926.135 954.92L850.353 1017.89L773.389 1062.46L693.997 1024.79L615.691 984.536L538.471 944.633L462.466 910.799L387.77 885.943L309.688 934.409" stroke="#FFFC43" stroke-width="1.32084" stroke-linecap="round" stroke-linejoin="round"/>
<path d="M1946.89 782.333L1865.45 723.516L1786.7 614.731L1709.77 467.353L1632.29 348.376L1593.41 326.076L1553.44 303.137L1474.91 286.3L1397.76 257.131L1321.02 269.239L1245.49 287.45L1242.11 290.964L1237.73 295.565L1180.76 355.181L1177.06 358.152L1170.76 364.638L1097.67 437.257L1026.26 454.541L960.415 481.761L893.611 509.365L825.912 537.383L755.401 508.374L686.68 539.332L616.968 567.767L546.106 590.546L474.478 625.881L401.667 655.561L327.77 685.689L252.595 710.034L183.043 685.241L113.97 648.916L45.5683 607.862L-22.003 566.808L-87.5295 551.92L-163.088 590.738L-239.605 631.792L-317.623 665.817" stroke="#FFFC43" stroke-width="1.32084" stroke-linecap="round" stroke-linejoin="round"/>
<path d="M1026.26 454.542L1091.4 379.558L1163.29 328.729" stroke="#FFFC43" stroke-width="1.32084" stroke-linecap="round" stroke-linejoin="round"/>
<path d="M1055.3 530.805L1104.35 448.122L1170.77 364.64L1177.38 358.155L1180.77 355.184L1237.73 295.567L1245.49 287.452L1289.42 258.571L1311.09 244.322L1331.88 231.319L1375.84 203.779" stroke="#FFFC43" stroke-width="1.32084" stroke-linecap="round" stroke-linejoin="round"/>
<path d="M384.51 966.454L462.464 910.799L539.045 841.311L590.578 804.889L614.923 787.701L641.6 778.404L678.564 765.561L690.162 761.503L751.215 734.219L765.528 726.424L819.585 702.143L842.46 691.855" stroke="#FFFC43" stroke-width="1.32084" stroke-linecap="round" stroke-linejoin="round"/>
<path d="M460.455 998.945L538.473 944.632L614.703 849.266" stroke="#FFFC43" stroke-width="1.32084" stroke-linecap="round" stroke-linejoin="round"/>
<path d="M2134.53 689.073L2053.13 647.029L1991.5 672.492L1928.94 698.243L1865.46 723.514L1801.02 748.306L1735.43 776.708L1668.53 814.695L1600.67 853.066L1531.76 892.139L1461.82 930.189L1390.77 971.275L1318.66 1013.03L1245.44 1051.91L1171.06 1091.18L1088.25 1055.33L1006.65 1009.42L926.141 954.918L846.589 888.241L767.836 812.107L690.425 774.696L614.93 787.699L540.682 795.814L467.264 782.427L395.124 774.504L323.464 745.175L252.602 710.032L176.692 747.316L107.044 718.402L38.0672 684.313L-39.0246 718.019L-117.267 751.597" stroke="#FFFC43" stroke-width="1.32084" stroke-linecap="round" stroke-linejoin="round"/>
<path d="M1420.93 322.689L1500.38 364.095L1578.94 479.749L1656.42 649.204L1735.43 776.71L1817.02 846.901" stroke="#FFFC43" stroke-width="1.32084" stroke-linecap="round" stroke-linejoin="round"/>
<path d="M235.984 902.844L314.162 861.055L391.094 815.049L467.26 782.43L542.723 772.334L604.639 781.152" stroke="#FFFC43" stroke-width="1.32084" stroke-linecap="round" stroke-linejoin="round"/>
<path d="M163.304 871.722L241.61 834.821L318.638 794.214L391.097 815.045L464.578 832.105L540.68 795.812L616.047 782.745L653.331 772.074" stroke="#FFFC43" stroke-width="1.32084" stroke-linecap="round" stroke-linejoin="round"/>
<path d="M615.695 1065.43L695.087 1099.42L775.694 1133.92L853.936 1096.9L930.9 1058.14L1012.59 1094.15L1088.25 1055.33L1162.78 1010.41L1236.26 959.326L1308.79 902.841L1380.42 841.404L1450.86 792.938L1520.32 744.408L1588.85 696.901L1656.42 649.201L1722.43 621.917L1786.71 614.729L1849.9 608.531L1912.17 598.914L1973.54 586.295L2034.08 571.311L2113.8 621.789L2195.26 658.882" stroke="#FFFC43" stroke-width="1.32084" stroke-linecap="round" stroke-linejoin="round"/>
<path d="M-251.744 694.026L-173.758 658.276L-106.858 687.669L-30.0531 648.947L38.0611 684.314L113.971 648.915L188.219 598.245L260.902 528.181L333.522 483.677L405.533 452.751L477.098 446.297L547.13 420.706L616.106 389.556L684.444 384.381L711.856 411.857L753.645 453.741L823.197 483.645L890.033 456.393L955.943 429.492L1020.96 402.975L1091.41 379.557L1155.88 314.318L1211.5 298.12L1234.57 283.839L1236.55 282.177L1244.06 278.088L1285.49 257.322L1311.08 244.318L1341.47 234.446L1386.83 219.686L1463.29 224.255L1527.5 207.77L1604.43 234.319L1666.73 243.712L1699.29 278.248L1724.43 306.139L1726.16 308.024L1801.62 383.838L1803.38 385.244L1811.62 390.962L1847.4 416.425L1859.99 425.371L1900.12 450.738L1936.73 473.869L1995.04 479.907L2073.22 509.428L2131.39 492.335L2210.56 518.181" stroke="#FFFC43" stroke-width="1.32084" stroke-linecap="round" stroke-linejoin="round"/>
<path d="M2372.16 570.93L2290.82 544.381L2232.77 568.406L2173.69 595.434L2113.79 621.792L2053.12 647.031L1973.54 586.297L1895.26 515.148L1834.27 507.736L1757.6 399.654L1738.59 369.782L1685.07 285.757L1681.78 280.613L1604.43 234.32L1540.28 254.16L1463.29 224.256L1397.76 257.131L1330.89 320.07L1263.48 365.405L1194.82 446.33L1125.4 539.173L1049.2 579.236L1026.96 599.524" stroke="#FFFC43" stroke-width="1.32084" stroke-linecap="round" stroke-linejoin="round"/>
<path d="M91.6387 841.056L170.105 808.628L247.356 776.647L318.633 794.219L395.118 774.507L470.07 743.037L542.721 772.334L616.522 740.929L689.237 709.971L747.99 732.974" stroke="#FFFC43" stroke-width="1.32084" stroke-linecap="round" stroke-linejoin="round"/>
<path d="M-382.575 638.022L-304.621 605.02L-227.657 574.125L-163.089 590.739L-97.2428 615.083L-22.0038 566.809L52.3405 520.196L125.534 469.494L188.729 428.184L197.962 422.146L244.735 396.747L255.469 390.932L269.718 383.201L298.855 369.91L325.756 357.642L340.708 350.805L408.216 386.044L477.096 446.299L546.744 510.101L616.967 567.767L687.51 594.604L757.19 565.787L825.911 537.384L897.316 563.838L969.679 590.643L1037.28 561.218L1082.75 518.471" stroke="#FFFC43" stroke-width="1.32084" stroke-linecap="round" stroke-linejoin="round"/>
<path d="M-48.6191 780.993L29.7827 749.46L107.035 718.406L183.04 685.243L257.225 630.611" stroke="#FFFC43" stroke-width="1.32084" stroke-linecap="round" stroke-linejoin="round"/>
<path d="M1212.04 513.9L1292.49 494.061" stroke="#FFFC43" stroke-width="1.32084" stroke-linecap="round" stroke-linejoin="round"/>
<path d="M1186.67 405.693L1253.96 357.834L1330.89 320.07L1408.78 310.774L1477.69 305.406L1487.92 304.607L1567.41 336.684L1645.74 445.373L1709.77 467.354L1772.45 492.401L1834.27 507.737L1840.85 515.436L1912.16 598.918L1991.49 672.495L2072.9 719.683" stroke="#FFFC43" stroke-width="1.32084" stroke-linecap="round" stroke-linejoin="round"/>
<path d="M-368.576 581.536L-291.58 552.878L-227.651 574.124L-151.773 543.9L-87.5248 551.92L-36.8225 523.837L-13.0845 510.674L26.9467 488.757L60.3971 470.419L86.9782 457.543L133.08 435.179L175.412 426.681L197.967 422.145L264.836 437.863L333.525 483.677L404.068 569.907L474.482 625.881L545.089 653.516L616.685 681.567L689.24 709.969L760.901 679.49L831.507 649.427L901.091 619.842L969.685 590.641L1021.44 591.504" stroke="#FFFC43" stroke-width="1.32084" stroke-linecap="round" stroke-linejoin="round"/>
<path d="M1118.34 476.043L1119.56 475.084L1186.68 405.692L1263.48 365.405L1341.69 331.092L1420.93 322.69L1487.92 304.607L1553.45 303.137L1618.21 289.272L1681.79 280.613L1742.3 333.936L1801.63 383.839L1803.38 385.245L1817.31 398.408L1832.39 412.401L1835.97 415.724L1836.64 416.363L1871.94 449.174L1877.95 454.765L1955.52 514.828L2014.75 514.189L2073.22 509.429L2152.45 539.141L2210.57 518.183L2290.82 544.381" stroke="#FFFC43" stroke-width="1.32084" stroke-linecap="round" stroke-linejoin="round"/>
<path d="M1402.4 1053.07L1329.36 1089.39L1245.43 1051.92L1162.78 1010.41L1081.31 955.783L1000.93 871.598L921.378 795.369L842.465 691.855" stroke="#FFFC43" stroke-width="1.32084" stroke-linecap="round" stroke-linejoin="round"/>
<path d="M-291.584 552.878L-215.674 524.667L-151.777 543.9L-76.9854 513.389L-55.6759 504.476L-3.24824 482.527L25.218 470.93L69.4667 452.879L133.076 435.179L157.996 424.732L176.271 417.065L204.961 405.02L232.308 395.819L269.72 383.199L336.908 407.64L408.217 386.043L478.664 372.656L547.13 420.707L616.586 481.792L686.681 539.332L757.191 565.785L828.66 592.622L901.087 619.842L939.298 634.187" stroke="#FFFC43" stroke-width="1.32084" stroke-linecap="round" stroke-linejoin="round"/>
<path d="M1164.06 539.557L1212.04 513.902L1282.39 459.717L1363.26 420.037L1432.55 381.986" stroke="#FFFC43" stroke-width="1.32084" stroke-linecap="round" stroke-linejoin="round"/>
<path d="M1474.25 1017.35L1402.39 1053.07L1318.66 1013.03L1236.26 959.328L1155.08 884.76L1074.82 799.458L995.369 689.171L916.711 645.977L906.935 651.28L906.647 651.44L906.2 651.663L901.088 654.443L839.619 687.766L815.275 700.481L765.531 726.423L751.218 734.218L690.42 774.697L685.02 780.065L614.702 849.265L539.047 841.31L464.575 832.109L387.771 885.942L314.162 861.054L241.606 834.824L170.106 808.627L99.4674 778.819L29.7874 749.458L-39.0299 718.021L-106.857 687.67L-184.971 722.621" stroke="#FFFC43" stroke-width="1.32084" stroke-linecap="round" stroke-linejoin="round"/>
<path d="M-215.675 524.666L-140.852 496.839L-67.0501 469.395L5.72846 442.335L77.4852 415.626L148.283 389.3L218.091 363.358L286.972 337.735L354.926 312.464L421.954 287.544L486.267 307.736L551.41 330.068L617.352 348.694L683.805 342.176L751.951 399.971L818.052 380.386L883.164 354.54L947.38 329.045L1010.8 299.205L1073.32 277.416L1135.05 251.506L1195.94 229.142L1256.04 206.555L1324.09 228.759L1327.7 229.941" stroke="#FFFC43" stroke-width="1.32084" stroke-linecap="round" stroke-linejoin="round"/>
<path d="M411.224 337.834L419.115 341.892L478.667 372.658L548.155 365.406L580.679 360.645L616.525 355.438L684.448 384.383L751.955 399.974L820.58 431.315L890.037 456.395L960.419 481.762L1017.7 502.433" stroke="#FFFC43" stroke-width="1.32084" stroke-linecap="round" stroke-linejoin="round"/>
<path d="M1645.74 445.375L1578.94 479.752L1510.92 524.48L1441.88 572.69L1371.56 640.772L1299.84 747.96L1227.82 822.751L1155.08 884.763L1081.31 955.785L1006.64 1009.43L930.895 1058.15L850.352 1017.89L770.896 968.277L692.335 909.811L614.7 849.268" stroke="#FFFC43" stroke-width="1.32084" stroke-linecap="round" stroke-linejoin="round"/>
<path d="M755.404 508.377L823.199 483.648L893.614 509.367L964.987 535.469L1020.42 555.213" stroke="#FFFC43" stroke-width="1.32084" stroke-linecap="round" stroke-linejoin="round"/>
<path d="M421.954 287.547L488.119 262.915L552.464 285.566L617.735 261.253L682.878 284.128L747.254 259.592L813.132 282.467L879.841 303.521L947.38 329.048L1015.81 352.786L1085.17 355.086L1155.88 314.32L1169.58 308.313L1204.89 292.85L1219.29 286.524L1233.73 283.969" stroke="#FFFC43" stroke-width="1.32084" stroke-linecap="round" stroke-linejoin="round"/>
<path d="M440.167 341.605L481.189 346.94L549.974 356.429L616.523 355.439L630.996 352.563L683.806 342.18L750.228 340.071L815.563 330.774L883.165 354.544L951.631 378.601L1020.96 402.978L1085.18 355.087L1148.59 313.65L1203.19 292.692L1219.3 286.525" stroke="#FFFC43" stroke-width="1.32084" stroke-linecap="round" stroke-linejoin="round"/>
<path d="M488.119 262.917L553.422 238.636L617.735 261.256L682.143 237.006L747.254 259.594L810.768 235.345L873.483 211.416L939.265 233.716L1005.88 256.24L1073.32 277.421L1141.69 287.581L1203.19 292.693" stroke="#FFFC43" stroke-width="1.32084" stroke-linecap="round" stroke-linejoin="round"/>
<path d="M553.422 238.632L617.862 214.671L682.143 237.003L745.72 213.041L808.467 189.432L873.483 211.412L935.367 187.802L1001.12 209.783L1062.14 186.205L1122.39 162.914L1188.81 184.607L1256.03 206.556" stroke="#FFFC43" stroke-width="1.32084" stroke-linecap="round" stroke-linejoin="round"/>
<path d="M617.863 214.673L681.473 191.031L745.721 213.043L810.769 235.344L876.615 257.931L943.291 280.775L1010.8 299.209L1079.17 312.084L1148.59 313.65" stroke="#FFFC43" stroke-width="1.32084" stroke-linecap="round" stroke-linejoin="round"/>
<path d="M1523.03 206.653L1590.35 206.143" stroke="#FFFC43" stroke-width="1.32084" stroke-linecap="round" stroke-linejoin="round"/>
<path d="M681.477 191.031L744.256 167.677L808.472 189.434L870.42 166.079L935.372 187.804L996.458 164.514L1062.14 186.207L1128.63 207.996L1188.82 184.609" stroke="#FFFC43" stroke-width="1.32084" stroke-linecap="round" stroke-linejoin="round"/>
<path d="M744.252 167.676L806.232 144.641L870.417 166.078L931.566 143.075L991.917 120.328L1056.77 141.51L1122.39 162.915" stroke="#FFFC43" stroke-width="1.32084" stroke-linecap="round" stroke-linejoin="round"/>
<path d="M354.924 312.465L419.108 328.056L484.06 340.995L519.81 349.366" stroke="#FFFC43" stroke-width="1.32084" stroke-linecap="round" stroke-linejoin="round"/>
<path d="M-140.848 496.84L-76.9821 513.389L-13.085 510.673L52.3455 520.194L119.789 557.286L188.222 598.244L257.232 630.608L331.512 611.247L404.067 569.906L475.121 504.348L546.749 510.098L616.589 481.792L685.31 441.281L753.648 453.741L820.58 431.313L886.554 404.796L951.633 378.598L1015.82 352.784L1079.17 312.081L1141.7 287.577L1203.29 270.612L1264.09 250.58L1281.85 255.66" stroke="#FFFC43" stroke-width="1.32084" stroke-linecap="round" stroke-linejoin="round"/>
<path d="M806.231 144.645L867.413 121.865L931.566 143.079L996.453 164.516L1056.77 141.514" stroke="#FFFC43" stroke-width="1.32084" stroke-linecap="round" stroke-linejoin="round"/>
<path d="M2372.16 570.928L2314.01 599.81L2255.07 629.139L2195.26 658.883L2134.53 689.074L2072.9 719.681L2010.37 750.767L1928.94 698.243L1849.9 608.532L1778.14 500.929L1772.45 492.399L1769.87 487.958L1695.97 361.186L1694.12 359.461L1618.21 289.27L1540.28 254.158L1474.92 286.299L1408.78 310.771L1341.69 331.091L1272.87 405.722L1203.07 504.699L1164.06 539.555L1140.89 551.951L1100.7 568.628L1068.72 581.919L1031.66 601.407L989.906 623.356L946.36 636.838L916.711 645.975L908.277 651.215L907.83 651.471L907.159 651.886L894.603 659.649L842.463 691.853L832.878 707.285L767.831 812.108L692.337 909.807L615.692 984.535L537.482 1031.95L460.454 998.943L384.512 966.452L309.689 934.407L235.984 902.842L163.301 871.724L91.6398 841.053L21.0336 810.83L-48.6144 780.99L-117.272 751.597L-184.971 722.62L-251.743 694.026L-317.621 665.816L-382.572 638.02L-446.693 610.576" stroke="#FFFC43" stroke-width="1.32084" stroke-linecap="round" stroke-linejoin="round"/>
<path d="M5.72656 442.339L69.4642 452.882L92.0836 443.393L141.189 422.818L211.987 394.224L255.756 378.122L281.89 368.538L337.513 349.145L350.867 344.48L400.803 332.468L419.109 328.059L486.265 307.739L552.462 285.567L617.637 309.049L683.579 332.531L748.786 307.324L815.559 330.775L879.839 303.522L943.289 280.775L1005.88 256.238L1067.66 232.053L1128.62 207.996L1195.94 229.146L1264.08 250.583L1324.08 228.763" stroke="#FFFC43" stroke-width="1.32084" stroke-linecap="round" stroke-linejoin="round"/>
<path d="M867.417 121.86L927.831 99.4004L991.92 120.327" stroke="#FFFC43" stroke-width="1.32084" stroke-linecap="round" stroke-linejoin="round"/>
<path d="M286.972 337.738L350.869 344.479L381.635 343.297" stroke="#FFFC43" stroke-width="1.32084" stroke-linecap="round" stroke-linejoin="round"/>
<path d="M77.4844 415.628L141.19 422.817L204.959 405.021" stroke="#FFFC43" stroke-width="1.32084" stroke-linecap="round" stroke-linejoin="round"/>
<path d="M218.094 363.359L281.895 368.534L320.137 359.014" stroke="#FFFC43" stroke-width="1.32084" stroke-linecap="round" stroke-linejoin="round"/>
<path d="M148.285 389.301L211.991 394.221L252.917 385.883" stroke="#FFFC43" stroke-width="1.32084" stroke-linecap="round" stroke-linejoin="round"/>
<path d="M673.9 763.709L616.521 740.93L543.902 712.08L472.305 683.614L398.44 714.189L327.77 685.691L257.228 630.611" stroke="#FFFC43" stroke-width="1.32084" stroke-linecap="round" stroke-linejoin="round"/>
<path d="M814.474 700.164L760.896 679.493L688.373 651.475L616.68 681.57L543.901 712.081L470.068 743.039L398.44 714.19L323.456 745.18L247.355 776.649L176.685 747.32L99.4651 778.821L21.0312 810.834" stroke="#FFFC43" stroke-width="1.32084" stroke-linecap="round" stroke-linejoin="round"/>
<path d="M1865.61 426.49L1917.91 448.599L1995.04 479.908L2053.22 466.809" stroke="#FFFC43" stroke-width="1.32084" stroke-linecap="round" stroke-linejoin="round"/>
<path d="M1869.99 429.398L1917.91 448.6L1976.06 441.635" stroke="#FFFC43" stroke-width="1.32084" stroke-linecap="round" stroke-linejoin="round"/>
<path d="M1063.26 473.87L1097.67 437.257L1163.29 328.728L1211.5 298.121" stroke="#FFFC43" stroke-width="1.32084" stroke-linecap="round" stroke-linejoin="round"/>
<path d="M1857.72 416.49L1899.89 416.746" stroke="#FFFC43" stroke-width="1.32084" stroke-linecap="round" stroke-linejoin="round"/>
<path d="M1100.7 568.629L1125.4 539.173L1203.07 504.7L1282.39 459.717L1352.42 368.568L1420.92 322.689" stroke="#FFFC43" stroke-width="1.32084" stroke-linecap="round" stroke-linejoin="round"/>
<path d="M579.176 353.074L617.355 348.697L683.584 332.531L750.228 340.071L818.055 380.39L886.553 404.799L955.945 429.495L1026.26 454.543" stroke="#FFFC43" stroke-width="1.32084" stroke-linecap="round" stroke-linejoin="round"/>
<path d="M1036.23 595.596L1049.2 579.238L1102.14 500.229L1118.34 476.044L1119.87 474.511L1177.38 358.154L1183.8 348.314L1227.57 293.426L1234.57 283.842L1236.55 282.18L1244.06 278.091L1281.28 256.015L1281.85 255.663L1301.12 244.385L1327.7 229.945L1375.84 203.779L1451.43 188.795L1523.03 206.654L1527.5 207.773L1590.35 206.143L1630.95 226.111L1666.74 243.715L1697.37 278.507L1713.6 299.657L1742.29 333.937L1757.79 352.627L1818.43 425.981L1829.71 439.08L1895.26 515.149L1955.52 514.83L2034.08 571.315L2093.89 551.986L2152.45 539.143L2232.77 568.408L2314.01 599.813" stroke="#FFFC43" stroke-width="1.32084" stroke-linecap="round" stroke-linejoin="round"/>
<path d="M1820.66 390.867L1824.72 392.209L1899.89 416.745L1976.06 441.633L2053.22 466.809L2131.39 492.336" stroke="#FFFC43" stroke-width="1.32084" stroke-linecap="round" stroke-linejoin="round"/>
<path d="M901.664 653.996L904.891 651.408L906.073 651.664" stroke="#FFFC43" stroke-width="1.32084" stroke-linecap="round" stroke-linejoin="round"/>
<path d="M906.741 651.281L904.888 651.409L831.502 649.428L759.043 621.857L687.51 594.605L616.808 623.87L545.083 653.518L472.305 683.613L401.666 655.562L331.507 611.25L260.901 528.183L192.499 490.261L125.535 469.494L60.392 470.421L-3.24962 482.529L-67.0508 469.398" stroke="#FFFC43" stroke-width="1.32084" stroke-linecap="round" stroke-linejoin="round"/>
<path d="M1119.27 475.692L1194.83 446.331L1272.88 405.724L1352.43 368.568L1432.55 381.986L1500.38 364.095L1567.41 336.684L1632.3 348.377L1695.97 361.188L1757.6 399.654L1818.43 425.98L1877.95 454.765L1936.73 473.871L1962.55 487.193L2014.75 514.19L2093.89 551.985L2173.7 595.435L2255.07 629.141" stroke="#FFFC43" stroke-width="1.32084" stroke-linecap="round" stroke-linejoin="round"/>
<path d="M1699.89 278.154L1730.09 309.528L1742.03 321.956L1820.66 390.869" stroke="#FFFC43" stroke-width="1.32084" stroke-linecap="round" stroke-linejoin="round"/>
<path d="M755.403 508.376L712.656 467.449L685.308 441.284L616.107 389.559L548.153 365.406L481.188 346.939" stroke="#FFFC43" stroke-width="1.32084" stroke-linecap="round" stroke-linejoin="round"/>
<path d="M340.709 350.804L366.236 346.107L381.635 343.296L411.219 337.833L440.165 341.603L484.062 340.996L551.41 330.069L617.639 309.047L682.878 284.127L748.788 307.322L813.132 282.466L876.614 257.93L939.265 233.713L1001.12 209.783L1067.67 232.051L1135.05 251.508L1203.29 270.613L1243.64 278.025" stroke="#FFFC43" stroke-width="1.32084" stroke-linecap="round" stroke-linejoin="round"/>
</g>
<rect x="-76" y="-62" width="2052" height="690" fill="url(#paint0_linear_1291_4257)"/>
<rect x="1977" y="883" width="2052" height="478" transform="rotate(-180 1977 883)" fill="url(#paint1_linear_1291_4257)"/>
</g>
<defs>
<linearGradient id="paint0_linear_1291_4257" x1="950" y1="-62" x2="950" y2="628" gradientUnits="userSpaceOnUse">
<stop offset="0.374" stop-color="#252525"/>
<stop offset="1" stop-color="#252525" stop-opacity="0"/>
</linearGradient>
<linearGradient id="paint1_linear_1291_4257" x1="3003" y1="883" x2="3003" y2="1361" gradientUnits="userSpaceOnUse">
<stop stop-color="#252525"/>
<stop offset="1" stop-color="#252525" stop-opacity="0"/>
</linearGradient>
<clipPath id="clip0_1291_4257">
<rect width="1964" height="880" fill="white"/>
</clipPath>
</defs>
</svg>
