<svg width="32" height="32" viewBox="0 0 32 32" fill="none" xmlns="http://www.w3.org/2000/svg">
<rect width="32" height="32" rx="16" fill="#B0B0B0"/>
<path d="M25.7334 12.7993C25.6117 11.6252 25.35 10.3272 24.3866 9.64511C23.6404 9.11616 22.6596 9.09661 21.744 9.09769C19.8084 9.09878 17.8718 9.10096 15.9363 9.10204C14.0747 9.10421 12.213 9.10531 10.3514 9.10748C9.57369 9.10856 8.81773 9.04772 8.09545 9.38442C7.47526 9.67334 6.98975 10.2229 6.69758 10.8344C6.29245 11.6849 6.20773 12.6483 6.15886 13.5889C6.06871 15.3018 6.07848 17.0189 6.18601 18.7307C6.2653 19.9798 6.46623 21.3603 7.43181 22.1564C8.2877 22.8613 9.49549 22.8961 10.6055 22.8972C14.129 22.9004 17.6535 22.9037 21.1781 22.9058C21.6299 22.9069 22.1013 22.8983 22.5618 22.8483C23.4677 22.7506 24.3311 22.4909 24.9133 21.8197C25.5009 21.143 25.6519 20.2014 25.741 19.3096C25.9582 17.146 25.956 14.9618 25.7334 12.7993ZM13.8987 19.0348V12.9687L19.1513 16.0012L13.8987 19.0348Z" fill="#3D3D3D"/>
</svg>
